<svg data-name="Layer 1" viewBox="0 0 73.843 70.806" xmlns="http://www.w3.org/2000/svg"><path d="M34.523 48.069v3.678h2.76v-3.678a.75.75 0 0 1 .75-.75h1.297v-2.51h-1.297a.75.75 0 0 1-.75-.75v-7.73h-2.76v7.73a.75.75 0 0 1-.75.75h-4.22a.75.75 0 0 1-.718-.965l6.102-20.337h-2.939l-5.954 20.658v3.154h7.73a.75.75 0 0 1 .75.75Z" transform="translate(-13.49 -15.052)" fill="none"></path><path d="M85.832 58.5V20.784a4.237 4.237 0 0 0-4.231-4.232H19.22a4.237 4.237 0 0 0-4.232 4.232V58.5ZM59.797 44.06a.745.745 0 0 1 .03-.208l6.139-21.303a.75.75 0 0 1 .72-.542h4.512a.75.75 0 0 1 .719.965L65.814 43.31h2.462v-7.73a.75.75 0 0 1 .75-.75h4.26a.75.75 0 0 1 .75.75v7.73h1.297a.75.75 0 0 1 .75.75v4.01a.75.75 0 0 1-.75.75h-1.297v3.678a.75.75 0 0 1-.75.75h-4.26a.75.75 0 0 1-.75-.75v-3.678h-7.73a.75.75 0 0 1-.75-.75ZM43.214 28.896a7.261 7.261 0 0 1 .589-2.98 7.028 7.028 0 0 1 1.565-2.242 6.777 6.777 0 0 1 2.278-1.43 7.572 7.572 0 0 1 5.337 0 6.795 6.795 0 0 1 2.275 1.43 7.07 7.07 0 0 1 1.568 2.242 7.295 7.295 0 0 1 .587 2.98v17.46a7.29 7.29 0 0 1-.586 2.977 7.064 7.064 0 0 1-1.57 2.244 6.79 6.79 0 0 1-2.274 1.431 7.548 7.548 0 0 1-5.338 0 6.784 6.784 0 0 1-2.277-1.432 7.014 7.014 0 0 1-1.565-2.242 7.25 7.25 0 0 1-.59-2.979Zm-18.67 15.162a.745.745 0 0 1 .03-.207l6.139-21.303a.75.75 0 0 1 .72-.542h4.512a.75.75 0 0 1 .72.965L30.561 43.31h2.461v-7.73a.75.75 0 0 1 .75-.75h4.26a.75.75 0 0 1 .75.75v7.73h1.297a.75.75 0 0 1 .75.75v4.01a.75.75 0 0 1-.75.75h-1.297v3.678a.75.75 0 0 1-.75.75h-4.26a.75.75 0 0 1-.75-.75v-3.678h-7.729a.75.75 0 0 1-.75-.75ZM33.187 81.166a.505.505 0 0 0-.446.37l-.506 2.726.08.096h36.19l.08-.096-.505-2.727a.506.506 0 0 0-.445-.37H33.187Z" transform="translate(-13.49 -15.052)" fill="none"></path><path d="M69.776 48.069v3.678h2.76v-3.678a.75.75 0 0 1 .75-.75h1.297v-2.51h-1.297a.75.75 0 0 1-.75-.75v-7.73h-2.76v7.73a.75.75 0 0 1-.75.75h-4.22a.75.75 0 0 1-.718-.965l6.102-20.337h-2.939l-5.954 20.658v3.154h7.73a.75.75 0 0 1 .75.75ZM50.313 47.737a1.255 1.255 0 0 0 .965-.378 1.353 1.353 0 0 0 .375-1.003V28.897a1.357 1.357 0 0 0-.376-1.005 1.423 1.423 0 0 0-1.93.002 1.358 1.358 0 0 0-.371 1.003v17.46a1.352 1.352 0 0 0 .373 1.002 1.255 1.255 0 0 0 .964.378Z" transform="translate(-13.49 -15.052)" fill="none"></path><path d="M46.402 50.49a5.285 5.285 0 0 0 1.778 1.118 6.072 6.072 0 0 0 4.268 0 5.29 5.29 0 0 0 1.776-1.117 5.556 5.556 0 0 0 1.233-1.768 5.792 5.792 0 0 0 .456-2.367V28.897a5.795 5.795 0 0 0-.457-2.369 5.58 5.58 0 0 0-1.232-1.767 5.3 5.3 0 0 0-1.776-1.115 6.034 6.034 0 0 0-4.267-.001 5.29 5.29 0 0 0-1.779 1.117 5.555 5.555 0 0 0-1.23 1.767 5.788 5.788 0 0 0-.458 2.368v17.46a5.778 5.778 0 0 0 .458 2.367 5.528 5.528 0 0 0 1.23 1.767Zm1.074-21.593a2.847 2.847 0 0 1 .794-2.046 2.92 2.92 0 0 1 4.085-.002 2.846 2.846 0 0 1 .798 2.048v17.46a2.841 2.841 0 0 1-.797 2.045 2.918 2.918 0 0 1-4.085 0 2.84 2.84 0 0 1-.795-2.046ZM14.99 60v1.972a4.236 4.236 0 0 0 4.23 4.231H81.6a4.236 4.236 0 0 0 4.232-4.23V60Zm35.42 4.758a1.656 1.656 0 1 1 1.656-1.656 1.658 1.658 0 0 1-1.656 1.656Z" transform="translate(-13.49 -15.052)" fill="none"></path><path d="M28.262 64.613h17.319l-2.823-11.962H31.084l-2.822 11.962z" fill="none"></path><circle cx="36.921" cy="48.049" r=".656" fill="none"></circle><path d="M68.111 0H5.731A5.738 5.738 0 0 0 0 5.731V46.92a5.738 5.738 0 0 0 5.731 5.73h23.812L26.72 64.614h-7.024a2.003 2.003 0 0 0-1.92 1.596l-.506 2.727a1.552 1.552 0 0 0 1.555 1.87h36.19a1.552 1.552 0 0 0 1.555-1.87l-.506-2.727a2.003 2.003 0 0 0-1.92-1.596h-7.023l-2.823-11.962h23.812a5.738 5.738 0 0 0 5.732-5.731V5.73A5.738 5.738 0 0 0 68.11 0ZM5.731 1.5h62.38a4.237 4.237 0 0 1 4.232 4.231v37.717H1.5V5.73A4.237 4.237 0 0 1 5.731 1.5Zm48.415 64.613a.506.506 0 0 1 .445.37l.506 2.727-.08.096h-36.19l-.08-.096.505-2.727a.505.505 0 0 1 .445-.37h34.449Zm-8.565-1.5h-17.32l2.823-11.962h11.674Zm22.53-13.462H5.731A4.236 4.236 0 0 1 1.5 46.92v-1.972h70.843v1.972a4.236 4.236 0 0 1-4.232 4.23Z" fill="#a34e4e" class="fill-000000"></path><path d="M36.92 46.393a1.656 1.656 0 1 0 1.657 1.656 1.658 1.658 0 0 0-1.656-1.656Zm0 2.313a.656.656 0 1 1 .657-.657.657.657 0 0 1-.656.657ZM11.805 33.767h7.73v3.677a.75.75 0 0 0 .75.75h4.259a.75.75 0 0 0 .75-.75v-3.677h1.297a.75.75 0 0 0 .75-.75v-4.01a.75.75 0 0 0-.75-.75h-1.297v-7.73a.75.75 0 0 0-.75-.75h-4.26a.75.75 0 0 0-.75.75v7.73h-2.462L23.175 7.92a.75.75 0 0 0-.719-.965h-4.512a.75.75 0 0 0-.72.542L11.084 28.8a.745.745 0 0 0-.03.208v4.01a.75.75 0 0 0 .75.75Zm.75-4.654 5.954-20.658h2.94l-6.103 20.337a.75.75 0 0 0 .718.965h4.22a.75.75 0 0 0 .75-.75v-7.73h2.76v7.73a.75.75 0 0 0 .75.75h1.297v2.51h-1.297a.75.75 0 0 0-.75.75v3.677h-2.76v-3.677a.75.75 0 0 0-.75-.75h-7.73ZM31.879 36.525a6.784 6.784 0 0 0 2.276 1.432 7.548 7.548 0 0 0 5.34 0 6.79 6.79 0 0 0 2.274-1.432 7.064 7.064 0 0 0 1.569-2.243 7.29 7.29 0 0 0 .586-2.978v-17.46a7.295 7.295 0 0 0-.587-2.98 7.07 7.07 0 0 0-1.568-2.241 6.795 6.795 0 0 0-2.275-1.431 7.572 7.572 0 0 0-5.338 0 6.777 6.777 0 0 0-2.277 1.431 7.028 7.028 0 0 0-1.566 2.242 7.261 7.261 0 0 0-.588 2.98v17.46a7.25 7.25 0 0 0 .588 2.978 7.014 7.014 0 0 0 1.566 2.242Zm-.654-22.68a5.788 5.788 0 0 1 .458-2.368 5.555 5.555 0 0 1 1.23-1.768 5.29 5.29 0 0 1 1.778-1.116 6.034 6.034 0 0 1 4.268 0 5.3 5.3 0 0 1 1.775 1.116 5.58 5.58 0 0 1 1.233 1.767 5.795 5.795 0 0 1 .457 2.369v17.46a5.792 5.792 0 0 1-.456 2.365 5.556 5.556 0 0 1-1.234 1.769 5.29 5.29 0 0 1-1.775 1.117 6.072 6.072 0 0 1-4.269 0 5.285 5.285 0 0 1-1.777-1.118 5.528 5.528 0 0 1-1.23-1.767 5.778 5.778 0 0 1-.458-2.367Z" fill="#a34e4e" class="fill-000000"></path><path d="M36.824 34.185a2.734 2.734 0 0 0 2.043-.835 2.841 2.841 0 0 0 .797-2.046v-17.46a2.846 2.846 0 0 0-.798-2.047 2.92 2.92 0 0 0-4.086.002 2.847 2.847 0 0 0-.794 2.046v17.46a2.84 2.84 0 0 0 .795 2.045 2.734 2.734 0 0 0 2.043.835Zm-1.338-20.34a1.358 1.358 0 0 1 .372-1.003 1.423 1.423 0 0 1 1.93-.002 1.357 1.357 0 0 1 .376 1.005v17.46a1.353 1.353 0 0 1-.375 1.002 1.422 1.422 0 0 1-1.93 0 1.352 1.352 0 0 1-.373-1.003ZM47.058 33.767h7.73v3.677a.75.75 0 0 0 .75.75h4.259a.75.75 0 0 0 .75-.75v-3.677h1.297a.75.75 0 0 0 .75-.75v-4.01a.75.75 0 0 0-.75-.75h-1.297v-7.73a.75.75 0 0 0-.75-.75h-4.26a.75.75 0 0 0-.75.75v7.73h-2.462L58.428 7.92a.75.75 0 0 0-.719-.965h-4.512a.75.75 0 0 0-.72.542L46.337 28.8a.745.745 0 0 0-.03.208v4.01a.75.75 0 0 0 .75.75Zm.75-4.654 5.954-20.658h2.94l-6.103 20.337a.75.75 0 0 0 .718.965h4.22a.75.75 0 0 0 .75-.75v-7.73h2.76v7.73a.75.75 0 0 0 .75.75h1.297v2.51h-1.297a.75.75 0 0 0-.75.75v3.677h-2.76v-3.677a.75.75 0 0 0-.75-.75h-7.73Z" fill="#a34e4e" class="fill-000000"></path></svg>