<?xml version="1.0" ?><svg id="Layer_1" style="enable-background:new 0 0 512 512;" version="1.1" viewBox="0 0 512 512" xml:space="preserve" xmlns="http://www.w3.org/2000/svg" xmlns:xlink="http://www.w3.org/1999/xlink"><g><polygon points="484.973,122.808 452.288,451.017 59.712,451.017 33.379,129.16 256,253.802  " style="fill:#F2F2F2;"/><polygon points="473.886,60.983 256,265.659 38.114,60.983 256,60.983  " style="fill:#F2F2F2;"/></g><path d="M59.712,155.493v295.524H24.139C10.812,451.017,0,440.206,0,426.878V111.967l39,1.063L59.712,155.493  z" style="fill:#F14336;"/><path d="M512,111.967v314.912c0,13.327-10.812,24.139-24.152,24.139h-35.56V155.493l19.692-46.525  L512,111.967z" style="fill:#D32E2A;"/><path d="M512,85.122v26.845l-59.712,43.526L256,298.561L59.712,155.493L0,111.967V85.122  c0-13.327,10.812-24.139,24.139-24.139h13.975L256,219.792L473.886,60.983h13.962C501.188,60.983,512,71.794,512,85.122z" style="fill:#F14336;"/><polygon points="59.712,155.493 0,146.235 0,111.967 " style="fill:#D32E2A;"/><g/><g/><g/><g/><g/><g/><g/><g/><g/><g/><g/><g/><g/><g/><g/></svg>