<svg width="15" height="14" viewBox="0 0 15 14" fill="none" xmlns="http://www.w3.org/2000/svg">
<path d="M1.30241e-08 7C1.30241e-08 6.57067 0.348211 6.22222 0.777778 6.22222H8.21489L6.68422 4.66667L7.77778 3.57311L10.6703 6.44078C10.9737 6.74489 10.9737 7.25511 10.6703 7.55922L7.77778 10.4269L6.68422 9.33333L8.21489 7.77778H0.777778C0.348211 7.77778 -7.77648e-05 7.42933 1.30241e-08 7ZM2.33333 3.11111C2.33333 1.393 3.72626 0 5.44444 0H11.6667C13.3848 0 14.7778 1.393 14.7778 3.11111V10.8889C14.7778 12.607 13.3848 14 11.6667 14H5.44444C3.72626 14 2.33333 12.607 2.33333 10.8889C2.33333 10.4596 2.68154 10.1111 3.11111 10.1111C3.54068 10.1111 3.88889 10.4596 3.88889 10.8889C3.88889 11.7483 4.58531 12.4444 5.44444 12.4444H11.6667C12.5261 12.4444 13.2222 11.7483 13.2222 10.8889V3.11111C13.2222 2.25167 12.5261 1.55556 11.6667 1.55556H5.44444C4.58531 1.55556 3.88889 2.25167 3.88889 3.11111C3.88889 3.54044 3.54068 3.88889 3.11111 3.88889C2.68154 3.88889 2.33333 3.54044 2.33333 3.11111Z" fill="#C1C7D0"/>
</svg>
