<svg width="48" height="48" viewBox="0 0 48 48" fill="none" xmlns="http://www.w3.org/2000/svg">
<rect width="48" height="48" rx="8" fill="#F8B602"/>
<g clip-path="url(#clip0_0_281)">
<path d="M30.6344 22.6469H25.5375V17.3656C25.5375 16.6094 24.925 15.9969 24.1687 15.9969C23.4125 15.9969 22.8 16.6094 22.8 17.3656V22.6469H17.3625C16.6125 22.6469 16 23.2594 16 24.0156C16 24.7719 16.6125 25.3844 17.3687 25.3844H22.8063V30.6344C22.8063 31.3906 23.4188 32.0031 24.175 32.0031C24.9313 32.0031 25.5437 31.3906 25.5437 30.6344V25.3844H30.6406C31.3969 25.3844 32.0094 24.7719 32.0094 24.0156C32 23.2594 31.3906 22.6469 30.6344 22.6469Z" fill="white"/>
</g>
<defs>
<clipPath id="clip0_0_281">
<rect width="16" height="16" fill="white" transform="translate(16 16)"/>
</clipPath>
</defs>
</svg>
