<svg width="16" height="16" viewBox="0 0 16 16" fill="none" xmlns="http://www.w3.org/2000/svg">
<path d="M9.04958 7.98895L9.03853 8L9.04958 8.01105L12.9155 11.877C13.0069 11.9684 13.0069 12.1169 12.9155 12.2083L12.2083 12.9155C12.1169 13.0069 11.9684 13.0069 11.877 12.9155L11.216 12.2546L8.01105 9.04958L8 9.03853L7.98895 9.04958L4.1227 12.9155C4.0313 13.0069 3.88276 13.0069 3.79136 12.9155L3.08417 12.2083C2.99278 12.1169 2.99278 11.9684 3.08417 11.877L6.95042 8.01105L6.96147 8L6.95042 7.98895L3.08417 4.1227C2.99278 4.0313 2.99278 3.88276 3.08417 3.79136L3.79167 3.08418L3.79167 3.08417C3.88307 2.99278 4.03162 2.99278 4.12301 3.08417L7.98895 6.95042L8 6.96147L8.01105 6.95042L11.877 3.08449C11.9684 2.99309 12.1169 2.99309 12.2083 3.08449L12.9155 3.79167C13.0069 3.88307 13.0069 4.03162 12.9155 4.12301L12.2546 4.78395L9.04958 7.98895Z" fill="#9D9D99" stroke="#9D9D99" stroke-width="0.03125"/>
</svg>
