<svg width="16" height="16" viewBox="0 0 16 16" fill="none" xmlns="http://www.w3.org/2000/svg">
<path fill-rule="evenodd" clip-rule="evenodd" d="M15.8187 13.0865L9.15481 1.58653C8.6437 0.701911 7.35758 0.701911 6.8437 1.58653L0.179808 13.0865C-0.331303 13.9684 0.307586 15.0769 1.33536 15.0769H14.6659C15.6881 15.0769 16.3326 13.9711 15.8187 13.0865ZM1.33259 14.1923H14.6659C15.0076 14.1923 15.2215 13.8219 15.0492 13.5288L8.38259 2.02883C8.21314 1.73304 7.78259 1.73581 7.61314 2.02883L0.946475 13.5288C0.77703 13.8246 0.990919 14.1923 1.33259 14.1923Z" fill="#E61E00"/>
<path fill-rule="evenodd" clip-rule="evenodd" d="M14.6659 14.1923H1.33259C0.990919 14.1923 0.77703 13.8246 0.946475 13.5288L7.61314 2.02883C7.78259 1.73581 8.21314 1.73304 8.38259 2.02883L15.0492 13.5288C15.2215 13.8219 15.0076 14.1923 14.6659 14.1923ZM8.49092 5.34614H7.50481C7.41036 5.34614 7.33536 5.42355 7.33814 5.51754L7.54647 10.9358C7.54925 11.027 7.62425 11.0961 7.71314 11.0961H8.28259C8.37147 11.0961 8.44648 11.0243 8.44925 10.9358L8.65759 5.51754C8.66036 5.42355 8.58536 5.34614 8.49092 5.34614ZM7.22147 12.4231C7.22147 11.9946 7.5687 11.649 7.99925 11.649C8.42981 11.649 8.77703 11.9946 8.77703 12.4231C8.77703 12.8516 8.42981 13.1971 7.99925 13.1971C7.5687 13.1971 7.22147 12.8516 7.22147 12.4231Z" fill="#E61E00"/>
</svg>
