<svg width="16" height="16" viewBox="0 0 16 16" fill="none" xmlns="http://www.w3.org/2000/svg">
<path fill-rule="evenodd" clip-rule="evenodd" d="M0.25 8C0.25 3.72134 3.72009 0.25 8 0.25C12.2799 0.25 15.75 3.72134 15.75 8C15.75 12.2812 12.2799 15.75 8 15.75C3.72009 15.75 0.25 12.2812 0.25 8ZM7.25 11H6.875C6.66791 11 6.5 11.1679 6.5 11.375V11.625C6.5 11.8321 6.66791 12 6.875 12H9.125C9.33209 12 9.5 11.8321 9.5 11.625V11.375C9.5 11.1679 9.33209 11 9.125 11H8.75V6.625C8.75 6.41791 8.58209 6.25 8.375 6.25H6.875C6.66791 6.25 6.5 6.41791 6.5 6.625V6.875C6.5 7.08209 6.66791 7.25 6.875 7.25H7.25V11ZM7 4.5C7 3.94772 7.44772 3.5 8 3.5C8.55228 3.5 9 3.94772 9 4.5C9 5.05228 8.55228 5.5 8 5.5C7.44772 5.5 7 5.05228 7 4.5Z" fill="#7262E6"/>
</svg>
