<svg width="16" height="16" viewBox="0 0 16 16" fill="none" xmlns="http://www.w3.org/2000/svg">
<g id="check-circle 1" clip-path="url(#clip0_1_244)">
<path id="Vector" d="M8 0.25C3.71978 0.25 0.25 3.71978 0.25 8C0.25 12.2802 3.71978 15.75 8 15.75C12.2802 15.75 15.75 12.2802 15.75 8C15.75 3.71978 12.2802 0.25 8 0.25ZM12.4259 6.15747L6.78594 11.7522C6.63891 11.8981 6.40147 11.8971 6.25562 11.7501L3.57194 9.04472C3.42609 8.89769 3.42703 8.66025 3.57406 8.51441L3.84031 8.25031C3.98734 8.10447 4.22478 8.10541 4.37063 8.25244L6.52612 10.4253L11.6337 5.35878C11.7807 5.21294 12.0181 5.21387 12.164 5.36091L12.4281 5.62716C12.5739 5.77419 12.573 6.01163 12.4259 6.15747Z" fill="#55B948"/>
</g>
<defs>
<clipPath id="clip0_1_244">
<rect width="16" height="16" fill="white"/>
</clipPath>
</defs>
</svg>
