<?xml version="1.0" ?>

<!DOCTYPE svg  PUBLIC '-//W3C//DTD SVG 1.1//EN'  'http://www.w3.org/Graphics/SVG/1.1/DTD/svg11.dtd'>

<!-- Uploaded to: SVG Repo, www.svgrepo.com, Generator: SVG Repo Mixer Tools -->
<svg fill="#000000" width="800px" height="800px" viewBox="0 0 64 64" style="fill-rule:evenodd;clip-rule:evenodd;stroke-linejoin:round;stroke-miterlimit:2;" version="1.1" xml:space="preserve" xmlns="http://www.w3.org/2000/svg" xmlns:serif="http://www.serif.com/" xmlns:xlink="http://www.w3.org/1999/xlink">

<g id="Icon">

<path d="M56,40.31L8,40.3C8.552,40.3 8,40.3 8,40.3C5.881,40.3 4.043,41.958 4.043,43.73C4.043,45.297 4.043,47.765 4.043,49.753C4.043,52.528 5.513,55.209 8.195,57.171C10.75,59.04 14.21,60.103 17.823,60.103C26.398,60.103 37.649,60.103 46.224,60.103C49.836,60.103 53.297,59.04 55.851,57.171C58.533,55.209 60.004,52.528 60.004,49.753C60.004,47.765 60.004,45.297 60.004,43.73C60.004,42.964 59.681,42.229 59.121,41.634C58.38,40.845 57.214,40.31 56,40.31Z" style="fill:rgb(248,172,58);"/>

<path d="M56,40.31L51.039,40.3C52.253,40.3 53.419,41.04 54.16,41.829C54.72,42.424 55.043,43.159 55.043,43.925C55.043,45.492 55.043,47.96 55.043,49.948C55.043,52.723 53.572,55.404 50.89,57.366C48.974,58.768 46.547,59.717 43.929,60.103L46.224,60.103C49.836,60.103 53.297,59.04 55.851,57.171C58.533,55.209 60.004,52.528 60.004,49.753C60.004,47.765 60.004,45.297 60.004,43.73C60.004,42.964 59.681,42.229 59.121,41.634C58.38,40.845 57.214,40.31 56,40.31Z" style="fill:rgb(243,148,4);"/>

<path d="M7.554,29.198L56.333,29.17C57.332,29.17 58.286,28.74 58.951,27.99C59.615,27.24 59.925,26.241 59.804,25.246C59.803,25.241 59.803,25.236 59.802,25.231C58.134,13.085 46.314,3.595 31.942,3.595C17.571,3.595 5.751,13.084 4.054,25.225C4.053,25.231 4.052,25.237 4.051,25.242C3.929,26.245 4.242,27.253 4.912,28.009C5.581,28.766 6.543,29.199 7.554,29.198Z" style="fill:rgb(248,172,58);"/>

<path d="M29.509,3.687C42.764,4.686 53.364,13.778 54.937,25.231C54.937,25.236 54.938,25.241 54.939,25.246C55.06,26.241 54.75,27.24 54.085,27.99C53.421,28.74 52.467,29.17 51.468,29.17L56.333,29.17C57.332,29.17 58.286,28.74 58.951,27.99C59.615,27.24 59.925,26.241 59.804,25.246C59.803,25.241 59.803,25.236 59.802,25.231C58.134,13.085 46.314,3.595 31.942,3.595C31.123,3.595 30.312,3.626 29.509,3.687Z" style="fill:rgb(243,148,4);"/>

<path d="M8.337,27.198C5.966,27.198 4.043,29.121 4.043,31.494C4.043,31.494 4.043,31.495 4.043,31.495C4.042,32.626 4.491,33.71 5.29,34.51C6.089,35.309 7.172,35.759 8.303,35.759C8.303,35.759 8.303,35.759 55.71,35.759C58.081,35.759 60.004,33.836 60.004,31.463C60.004,31.463 60.004,31.462 60.004,31.462C60.005,30.331 59.556,29.247 58.757,28.448C57.958,27.648 56.874,27.198 55.744,27.198C55.744,27.198 8.337,27.198 8.337,27.198Z" style="fill:rgb(240,104,45);"/>

<path d="M5.14,28.627C5.185,28.625 5.231,28.625 5.277,28.625C5.277,28.625 52.684,28.625 52.684,28.625C53.814,28.625 54.898,29.074 55.697,29.874C56.496,30.673 56.944,31.757 56.944,32.888C56.944,32.888 56.944,32.889 56.944,32.889C56.944,33.991 56.529,34.996 55.847,35.756C58.154,35.684 60.004,33.79 60.004,31.463C60.004,31.463 60.004,31.462 60.004,31.462C60.005,30.331 59.556,29.247 58.757,28.448C57.958,27.648 56.874,27.198 55.744,27.198C55.744,27.198 8.337,27.198 8.337,27.198C7.067,27.198 5.926,27.75 5.14,28.627Z" style="fill:rgb(229,79,13);"/>

<path d="M34.093,42.319C34.807,42.319 35.494,42.589 36.016,43.076C37.561,44.516 40.184,46.962 40.184,46.962C40.568,47.32 41.164,47.32 41.548,46.962C41.548,46.962 44.171,44.516 45.716,43.076C46.238,42.589 46.925,42.319 47.639,42.319C50.346,42.319 55.759,42.319 55.759,42.319C58.13,42.319 60.053,40.396 60.054,38.023C60.054,38.023 60.054,38.022 60.054,38.022C60.054,36.891 59.606,35.807 58.807,35.008C58.008,34.208 56.924,33.759 55.794,33.759C46.183,33.759 18.039,33.759 8.387,33.759C6.016,33.759 4.093,35.681 4.092,38.054C4.092,38.055 4.092,38.055 4.092,38.055C4.092,39.186 4.541,40.27 5.339,41.07C6.138,41.869 7.222,42.319 8.352,42.319L34.093,42.319Z" style="fill:rgb(255,252,92);"/>

<path d="M4.519,36.185C5.084,35.912 5.718,35.759 6.387,35.759C16.039,35.759 44.183,35.759 53.794,35.759C54.924,35.759 56.008,36.208 56.807,37.008C57.606,37.807 58.054,38.891 58.054,40.022C58.054,40.022 58.054,40.023 58.054,40.023C58.054,40.693 57.9,41.327 57.627,41.892C59.063,41.198 60.053,39.726 60.054,38.023C60.054,38.023 60.054,38.022 60.054,38.022C60.054,36.891 59.606,35.807 58.807,35.008C58.008,34.208 56.924,33.759 55.794,33.759C46.183,33.759 18.039,33.759 8.387,33.759C6.685,33.759 5.215,34.749 4.519,36.185Z" style="fill:rgb(254,250,34);"/>

<g transform="matrix(1.25,0,0,1.25,-117.984,3.52025)">

<circle cx="118" cy="36" r="1" style="fill:rgb(243,148,4);"/>

</g>

<g transform="matrix(1.25,0,0,1.25,-136.716,2.48019)">

<circle cx="118" cy="36" r="1" style="fill:rgb(243,148,4);"/>

</g>

<g transform="matrix(1.25,0,0,1.25,-128.31,9.04025)">

<circle cx="118" cy="36" r="1" style="fill:rgb(243,148,4);"/>

</g>

<g transform="matrix(1.25,0,0,1.25,-108.765,8.62322)">

<circle cx="118" cy="36" r="1" style="fill:rgb(243,148,4);"/>

</g>

<g transform="matrix(1.25,0,0,1.25,-96.6927,6.02025)">

<circle cx="118" cy="36" r="1" style="fill:rgb(243,148,4);"/>

</g>

<g transform="matrix(1.25,0,0,1.25,-134.153,-23.076)">

<circle cx="118" cy="36" r="1" style="fill:rgb(243,148,4);"/>

</g>

<g transform="matrix(1.25,0,0,1.25,-127.168,-33.4396)">

<circle cx="118" cy="36" r="1" style="fill:rgb(243,148,4);"/>

</g>

<g transform="matrix(1.25,0,0,1.25,-119.188,-23.8964)">

<circle cx="118" cy="36" r="1" style="fill:rgb(243,148,4);"/>

</g>

<g transform="matrix(1.25,0,0,1.25,-98.0703,-25.009)">

<circle cx="118" cy="36" r="1" style="fill:rgb(243,148,4);"/>

</g>

<g transform="matrix(1.25,0,0,1.25,-108.489,-21.8543)">

<circle cx="118" cy="36" r="1" style="fill:rgb(243,148,4);"/>

</g>

<g transform="matrix(1.25,0,0,1.25,-104.585,-32.1898)">

<circle cx="118" cy="36" r="1" style="fill:rgb(243,148,4);"/>

</g>

</g>

</svg>