<?xml version="1.0" encoding="utf-8"?>
<!-- Uploaded to: SVG Repo, www.svgrepo.com, Generator: SVG Repo Mixer Tools -->
<svg width="800px" height="800px" viewBox="0 0 1024 1024" class="icon"  version="1.1" xmlns="http://www.w3.org/2000/svg"><path d="M484.075052 207.041029l102.796416-61.661865c149.921963 32.442172 275.493116 94.589966 356.074253 174.384665l-0.485929 0.524292L76.492298 451.402704 484.075052 207.041029zM942.456595 519.733308v116.018807L76.492298 766.869895v-201.545553c80.731391-8.353508 92.492798 62.598558 176.219687 50.798789 85.488383-12.061915 75.03451-86.274821 160.522894-98.336737 85.488383-12.026749 95.939059 62.186157 181.427442 50.162605 85.526746-12.061915 75.03451-86.274821 160.561256-98.336736 85.488383-12.061915 95.939059 62.186157 181.465805 50.124242h5.767213z" fill="#FFB578" /><path d="M942.456595 320.288121v199.445187h-5.77041c-85.526746 12.061915-95.977422-62.186157-181.465805-50.124242-85.526746 12.061915-75.03451 86.274821-160.561256 98.336737-85.488383 12.026749-95.939059-62.186157-181.427442-50.162605-85.488383 12.061915-75.03451 86.274821-160.522894 98.336736-83.72689 11.799769-95.491493-59.152296-176.219687-50.798789V451.402704l865.967494-131.114583z" fill="#FF4893" /><path d="M76.492298 789.248216a22.378321 22.378321 0 0 1-22.378321-22.378321V451.402704a22.378321 22.378321 0 0 1 19.027967-22.125766l865.964297-131.11778a22.384715 22.384715 0 0 1 25.728675 22.125766v315.467191a22.378321 22.378321 0 0 1-19.027966 22.125766L79.842652 788.99566c-1.118916 0.169436-2.237832 0.252555-3.350354 0.252556z m22.378321-318.600156v270.199044l821.207655-124.340345v-270.202242L98.870619 470.64806z" fill="#4F46A3" /><path d="M76.514676 473.784222a22.378321 22.378321 0 0 1-11.531229-41.572527L472.566201 187.846823l102.790023-61.661865a22.378321 22.378321 0 1 1 23.024095 38.382018l-102.793219 61.661865-407.589148 244.368068a22.295202 22.295202 0 0 1-11.483276 3.187313z" fill="#4F46A3" /><path d="M943.428454 342.628079a22.298398 22.298398 0 0 1-15.473011-6.211582 21.937148 21.937148 0 0 1-1.144491-1.134901c-78.135506-77.173238-200.51615-136.837039-344.674097-168.032419a22.378321 22.378321 0 0 1 9.46603-43.743223c152.623346 33.027205 282.989854 97.077157 367.087584 180.356479l0.335674 0.342069 0.226981 0.223783a22.378321 22.378321 0 0 1-15.82467 38.199794zM67.988536 543.825169a152.124629 152.124629 0 0 1 5.537036-0.690531l0.49552-0.054347c47.531554-4.936018 75.472486 13.196816 100.130199 29.184527 22.886629 14.836827 40.968312 26.569461 75.43732 21.694184 34.465811-4.862489 48.602516-21.115544 66.498779-41.694009 20.156473-23.17435 43.001542-49.443302 94.020918-56.63953 51.025769-7.17385 80.242265 11.755012 106.0125 28.462027 22.883432 14.830433 40.965115 26.543886 75.421336 21.697381 34.481796-4.862489 48.618501-21.115544 66.514763-41.694009 20.15967-23.177547 43.004739-49.443302 94.043296-56.642727 51.041753-7.193032 80.232675 11.735831 106.006107 28.439649 22.889825 14.836827 40.961918 26.550279 75.459698 21.68779a22.378321 22.378321 0 1 1 6.249945 44.318666c-51.041753 7.183441-80.267841-11.739028-106.050863-28.446043-22.880235-14.827236-40.942737-26.540689-75.414942-21.678199-34.48819 4.865686-48.624895 21.118741-66.521157 41.697206-20.15967 23.17435-43.004739 49.443302-94.043296 56.642727-51.009784 7.177047-80.235871-11.758209-106.009303-28.462027-22.883432-14.830433-40.949131-26.553476-75.424533-21.697381-34.459417 4.862489-48.596123 21.115544-66.495582 41.694009-20.156473 23.17435-43.001542 49.443302-94.020918 56.642727-7.643795 1.077356-14.801661 1.566482-21.527944 1.566483-38.187006 0-62.58577-15.818276-84.503737-30.02851-21.988299-14.25499-39.36986-25.508089-71.00961-22.237657l-0.348462 0.038362c-1.25958 0.140664-2.560719 0.281327-3.865056 0.473142M76.463526 901.635341a22.378321 22.378321 0 0 1-3.321582-44.507284l865.964297-131.117779a22.378321 22.378321 0 1 1 6.700709 44.251531L79.842652 901.379589c-1.134901 0.172633-2.263407 0.255752-3.379126 0.255752zM586.865074 267.110836a22.282414 22.282414 0 0 1-7.698142-1.374668l-102.793219-37.688289a22.378321 22.378321 0 0 1 15.402679-42.02329l102.793219 37.688289a22.384715 22.384715 0 1 1-7.704537 43.397958z" fill="#4F46A3" /></svg>