<?xml version="1.0" encoding="utf-8"?>
<!-- Uploaded to: SVG Repo, www.svgrepo.com, Generator: SVG Repo Mixer Tools -->
<svg width="800px" height="800px" viewBox="0 0 1024 1024" class="icon"  version="1.1" xmlns="http://www.w3.org/2000/svg"><path d="M317.449502 212.600573v-52.090166h390.676756v52.090166" fill="#FFB957" /><path d="M265.359336 290.73531H226.291967l13.022798-78.134737h546.94623l13.022797 78.134737h-39.067368" fill="#ACF0F2" /><path d="M708.126258 915.8173H317.449502l-52.090166-625.08199h494.857088zM369.539668 160.510407V108.420241h78.13576v52.090166" fill="#FFFFFF" /><path d="M720.105716 928.840098H305.470043l-54.264898-651.127586h523.165469l-54.264898 651.127586z m-390.676756-26.044571h366.716816l49.915433-599.036396H279.513526l49.915434 599.036396z" fill="#4D5152" /><path d="M814.659478 303.758107h-54.443054v-26.044571h23.691682l-8.679476-52.090166H250.347129l-8.679476 52.090166h23.691683v26.044571h-54.443055l17.366119-104.180332h569.010959z" fill="#4D5152" /><path d="M721.148031 212.600573h-26.044571v-39.067369H330.472299v39.067369h-26.045595v-65.112964h416.721327z" fill="#4D5152" /><path d="M734.170829 811.636969H291.404931l-39.068393-416.721328h520.901659z" fill="#FFB957" /><path d="M746.029469 824.659766H279.545267L238.035932 381.893868h549.502872l-41.509335 442.765898z m-442.765899-26.044571h419.048619L758.937591 407.938439H266.638169l36.625401 390.676756z" fill="#4D5152" /><path d="M512.787368 603.276305m-143.2477 0a143.2477 143.2477 0 1 0 286.4954 0 143.2477 143.2477 0 1 0-286.4954 0Z" fill="#FFFFFF" /><path d="M512.787368 603.276305m-91.157535 0a91.157534 91.157534 0 1 0 182.315069 0 91.157534 91.157534 0 1 0-182.315069 0Z" fill="#67DDE0" /><path d="M512.787368 707.456637c-57.444062 0-104.180332-46.73627-104.180332-104.180332s46.73627-104.180332 104.180332-104.180332 104.180332 46.73627 104.180332 104.180332-46.735246 104.180332-104.180332 104.180332z m0-182.315069c-43.086118 0-78.135761 35.048619-78.135761 78.134737s35.048619 78.134737 78.135761 78.134737 78.134737-35.048619 78.134737-78.134737-35.047595-78.134737-78.134737-78.134737z" fill="#4D5152" /><path d="M499.765594 590.254531h26.045595v26.045595h-26.045595zM460.697202 160.510407H434.652631v-39.067369h-52.090166v39.067369h-26.045595V95.397443h104.180332z" fill="#4D5152" /></svg>