<!DOCTYPE svg PUBLIC "-//W3C//DTD SVG 1.1//EN" "http://www.w3.org/Graphics/SVG/1.1/DTD/svg11.dtd">

<!-- Uploaded to: SVG Repo, www.svgrepo.com, Transformed by: SVG Repo Mixer Tools -->
<svg width="800px" height="800px" viewBox="0 0 1024 1024" class="icon" version="1.1" xmlns="http://www.w3.org/2000/svg" fill="#000000">

<g id="SVGRepo_bgCarrier" stroke-width="0"/>

<g id="SVGRepo_tracerCarrier" stroke-linecap="round" stroke-linejoin="round"/>

<g id="SVGRepo_iconCarrier">

<path d="M876.175205 654.818445c34.94215 0 63.298679 28.35653 63.29868 63.298679 0 33.919141-26.69414 61.604321-60.197684 63.202772-1.023009 0.063938-2.077987 0.095907-3.100996 0.095907H141.558865c-1.023009 0-2.046018-0.031969-3.069027-0.095907-33.503543-1.566482-60.197683-29.251662-60.197684-63.202772 0-17.45509 7.097125-33.311729 18.542038-44.756642 11.444913-11.444913 27.237614-18.542037 44.724673-18.542037h734.61634z" fill="#FF4893"/>

<path d="M888.802972 539.218432v35.965159c0 5.626549-3.772346 10.166152-8.439824 10.166151H137.370922c-4.667478 0-8.439824-4.539602-8.439824-10.166151v-99.935188c75.414942 0.383628 75.638725 63.970029 151.533202 63.970029 76.11826 0 76.11826-63.970029 152.26849-63.970029 76.11826 0 76.11826 63.970029 152.236521 63.970029 76.150229 0 76.150229-63.970029 152.300459-63.970029 75.862508 0 76.11826 63.554432 151.533202 63.970029z" fill="#5FCEFF"/>

<path d="M888.802972 433.592757v105.625675c-75.414942-0.415597-75.670694-63.970029-151.533202-63.970029-76.150229 0-76.150229 63.970029-152.300459 63.970029-76.11826 0-76.11826-63.970029-152.236521-63.970029-76.150229 0-76.150229 63.970029-152.26849 63.970029-75.894477 0-76.11826-63.586401-151.533202-63.970029v-41.655646c0-5.626549 3.772346-10.198121 8.439824-10.198121h742.992226c4.667478 0 8.439824 4.571571 8.439824 10.198121z" fill="#42BC90"/>

<path d="M888.802972 342.640867v8.056195H128.931098v-8.056195c0-135.388842 170.107209-245.106553 379.951922-245.106553 209.812744 0 379.919953 109.717711 379.919952 245.106553z m-222.056882-156.584309c0-10.517811-8.535731-19.053542-19.053542-19.053542s-19.021573 8.535731-19.021573 19.053542 8.503762 19.021573 19.021573 19.021573 19.053542-8.503762 19.053542-19.021573z m-130.881209 63.650338a13.426993 13.426993 0 1 0-26.853985 0c0 7.416815 6.010178 13.458962 13.426992 13.458962 7.416815 0 13.426993-6.042147 13.426993-13.458962z m-61.124785-95.811182c0-7.25697-5.882302-13.139271-13.107303-13.139272a13.139271 13.139271 0 0 0-13.139271 13.139272 13.126484 13.126484 0 0 0 26.246574 0z m-119.404328 61.95598c0-6.106085-4.9552-11.061284-11.061284-11.061285s-11.029315 4.9552-11.029315 11.061285 4.923231 11.061284 11.029315 11.061284c6.106085 0 11.061284-4.9552 11.061284-11.061284zM876.175205 781.415803c1.023009 0 2.077987-0.031969 3.100996-0.095907l0.031969 1.310731c0 77.365053-62.723237 140.05632-140.05632 140.05632H278.514189c-77.365053 0-140.05632-62.691268-140.05632-140.05632l0.031969-1.310731c1.023009 0.063938 2.046018 0.095907 3.069027 0.095907h734.61634z" fill="#FFB578"/>

<path d="M888.802972 365.019188a22.378321 22.378321 0 0 1-22.378321-22.378321c0-57.611389-35.882039-112.489426-101.034922-154.51911-68.18035-43.986188-159.276101-68.209122-256.506709-68.209122-97.243395 0-188.351934 24.222934-256.538679 68.209122-65.152883 42.029684-101.034922 96.904524-101.034922 154.51911a22.378321 22.378321 0 1 1-44.756642 0c0-73.340152 43.161387-141.574849 121.533464-192.130674 75.331822-48.592926 175.052818-75.354201 280.796779-75.3542 105.731173 0 205.442578 26.761275 280.771202 75.3542 78.36888 50.555824 121.527071 118.787325 121.527071 192.130674a22.378321 22.378321 0 0 1-22.378321 22.378321z" fill="#4F46A3"/>

<path d="M888.802972 373.075383H128.931098a22.378321 22.378321 0 1 1 0-44.756642h759.871874a22.378321 22.378321 0 1 1 0 44.756642zM739.25185 945.065268H278.514189c-89.567631 0-162.434641-72.86701-162.434641-162.434641a22.378321 22.378321 0 1 1 44.756642 0c0 64.88754 52.790459 117.677999 117.677999 117.677999h460.737661c64.88754 0 117.677999-52.790459 117.677999-117.677999a22.378321 22.378321 0 1 1 44.756642 0c0 89.567631-72.86701 162.434641-162.434641 162.434641z" fill="#4F46A3"/>

<path d="M876.175205 803.794124H141.558865c-1.476969 0-2.953938-0.044757-4.430908-0.134269-45.39922-2.122744-81.210927-39.705535-81.210927-85.542731 0-22.880235 8.912966-44.398589 25.095689-60.581312 16.182723-16.182723 37.688289-25.095689 60.546146-25.095688h734.61634c47.240636 0 85.677 38.433168 85.677001 85.677 0 45.795635-35.802117 83.37523-81.508239 85.558715-1.179657 0.070332-2.698186 0.118285-4.168762 0.118285z m-734.61634-126.597358c-10.907833 0-21.169892 4.258275-28.900003 11.988386s-11.988386 18.004958-11.988387 28.931972c0 21.889195 17.071462 39.830214 38.86475 40.850027 0.885542 0.05115 1.454591 0.067135 2.02364 0.067135h734.61634c0.572246 0 1.163673-0.015985 1.739116-0.054348 22.10019-1.054978 39.181243-18.999195 39.181243-40.866011 0-22.563741-18.356617-40.920358-40.920359-40.920358H141.558865zM880.363148 607.73126H137.370922c-16.991539 0-30.818145-14.600256-30.818145-32.547669v-141.590834c0-17.963398 13.826605-32.576442 30.818145-32.576442h742.992226c16.991539 0 30.818145 14.613044 30.818145 32.576442v141.590834c0 17.944217-13.826605 32.547669-30.818145 32.547669z m-729.053729-44.756642h715.115232v-117.201661H151.309419V562.974618z" fill="#4F46A3"/>

<path d="M889.53826 561.596753h-0.735288c-45.795635-0.252555-70.20399-20.757491-89.81699-37.234329-17.777978-14.935931-31.818776-26.732503-61.716212-26.732503-29.923012 0-43.973401 11.799769-61.757772 26.742094-19.744073 16.585533-44.312272 37.227935-90.53949 37.227935-46.21443 0-70.779432-20.642403-90.517112-37.231132-17.777978-14.935931-31.818776-26.7357-61.722606-26.7357-29.926209 0-43.970204 11.802966-61.754575 26.74529-19.737679 16.585533-44.302682 37.224739-90.513915 37.224739-46.220824 0-70.785826-20.6456-90.520308-37.234329-17.669283-14.852811-31.626961-26.582248-61.124786-26.732503h-0.591427a22.378321 22.378321 0 1 1 0-44.756642h0.703319c45.795635 0.233374 70.197596 20.744704 89.807399 37.227935 17.777978 14.939128 31.815579 26.742094 61.725803 26.742094 29.903831 0 43.944629-11.796572 61.722606-26.7357 19.744073-16.58873 44.315469-37.234329 90.545884-37.234329 46.21443 0 70.779432 20.6456 90.517112 37.231132 17.777978 14.939128 31.815579 26.738897 61.722606 26.738897 29.919815 0 43.970204-11.799769 61.751378-26.742094 19.74727-16.585533 44.318666-37.227935 90.545884-37.227935 46.201642 0 70.766645 20.639206 90.507521 37.224738 17.678874 14.852811 31.639749 26.582248 61.147163 26.745291h0.613806c12.359227 0 22.378321 10.019094 22.378321 22.378321s-10.019094 22.36873-22.378321 22.36873zM461.632793 189.381337c-19.584228 0-35.517592-15.91738-35.517592-35.485623 0-19.584228 15.933365-35.517592 35.517592-35.517593 19.568243 0 35.485623 15.933365 35.485624 35.517593 0 19.568243-15.91738 35.485623-35.485624 35.485623z m0-44.756642a9.280609 9.280609 0 0 0-9.271018 9.271019 9.264625 9.264625 0 0 0 9.271018 9.239049 9.24864 9.24864 0 0 0 9.23905-9.239049c0-5.111848-4.143186-9.271019-9.23905-9.271019zM647.692548 227.456452c-22.829084 0-41.396697-18.57081-41.396697-41.399894 0-22.845069 18.57081-41.431863 41.396697-41.431863 22.845069 0 41.431863 18.586794 41.431863 41.431863 0 22.829084-18.586794 41.399894-41.431863 41.399894z m0-44.756642c-1.831825 0-3.324779 1.505741-3.324779 3.356748 0 1.831825 1.492954 3.324779 3.324779 3.324779 1.851007 0 3.359945-1.492954 3.359945-3.324779a3.366339 3.366339 0 0 0-3.359945-3.356748zM522.437888 285.544179c-19.744073 0-35.805314-16.077225-35.805313-35.837283 0-19.744073 16.061241-35.805314 35.805313-35.805313s35.805314 16.061241 35.805314 35.805313c0 19.763254-16.061241 35.837283-35.805314 35.837283z m0-44.756642a8.944935 8.944935 0 0 0-8.951328 8.919359c0 4.936018 4.01531 8.951328 8.951328 8.951329s8.951328-4.01531 8.951329-8.951329a8.944935 8.944935 0 0 0-8.951329-8.919359zM344.274484 249.291299c-18.420555 0-33.407636-14.999869-33.407636-33.439605s14.987081-33.439605 33.407636-33.439606c18.439737 0 33.439605 14.999869 33.439605 33.439606s-14.999869 33.439605-33.439605 33.439605z m0-44.756642c-6.240355 0-11.317037 5.076682-11.317037 11.317037a11.329824 11.329824 0 0 0 22.666043 0 11.349006 11.349006 0 0 0-11.349006-11.317037z" fill="#4F46A3"/>

</g>

</svg>