<svg width="49" height="48" viewBox="0 0 49 48" fill="none" xmlns="http://www.w3.org/2000/svg">
<g id="Frame" clip-path="url(#clip0_111_2832)">
<g id="Group">
<path id="Vector" d="M44.1926 33.492L43.5184 31.8632L35.7648 13.1352C35.6934 12.9629 35.5565 12.8261 35.3843 12.7546L15.0106 4.31743C14.9218 4.28036 14.8262 4.26205 14.7299 4.26365C14.6336 4.26524 14.5387 4.28671 14.4511 4.32671C14.3635 4.3665 14.285 4.42387 14.2205 4.49527C14.1559 4.56666 14.1067 4.65055 14.076 4.74174L12.8124 8.47543L0.64768 44.416L0.644399 44.4272C0.312899 45.4084 0.561524 46.4737 1.29409 47.2063C1.66065 47.5728 2.11018 47.8182 2.59074 47.9302C3.0714 48.0422 3.58318 48.021 4.07368 47.8553L27.1289 40.0565L28.4056 38.7373L34.2738 37.6395L40.036 35.6904L43.7689 34.4275C43.8601 34.3966 43.9439 34.3472 44.0151 34.2826C44.0864 34.2179 44.1436 34.1393 44.1832 34.0515C44.2229 33.9639 44.2443 33.869 44.2459 33.7728C44.2475 33.6765 44.2293 33.581 44.1926 33.492Z" fill="#F9D11F"/>
<path id="Vector_2" d="M43.769 34.4274L40.036 35.6903L34.2739 37.6394L28.4057 38.7372L27.1289 40.0564L4.07364 47.8552C3.58305 48.021 3.07126 48.0422 2.5907 47.9301C2.11005 47.8181 1.66061 47.5728 1.29404 47.2062C0.561482 46.4736 0.312951 45.4083 0.644357 44.4272L0.647639 44.4159C1.13775 44.8396 1.72994 45.128 2.36568 45.2526C3.00142 45.3773 3.65868 45.3339 4.27248 45.1266L43.5183 31.8632L44.1925 33.492C44.2292 33.5809 44.2473 33.6764 44.2457 33.7726C44.244 33.8688 44.2227 33.9636 44.1831 34.0513C44.1434 34.1389 44.0862 34.2175 44.015 34.2822C43.9437 34.3469 43.86 34.3963 43.769 34.4274Z" fill="#FFA402"/>
<path id="Vector_3" d="M43.769 34.4275L40.0361 35.6904C39.8438 34.8742 39.6174 34.0665 39.3572 33.2693C37.9399 28.9231 35.1589 23.6931 29.8761 18.4089C23.5663 12.103 17.5815 9.61168 12.8389 8.50065L12.8124 8.47543L14.0759 4.74174C14.1067 4.65056 14.1559 4.56667 14.2205 4.49528C14.285 4.42389 14.3635 4.36651 14.4511 4.32671C14.5387 4.28671 14.6336 4.26524 14.7299 4.26365C14.8262 4.26205 14.9218 4.28036 15.0106 4.31743L35.3843 12.7546C35.5565 12.8261 35.6934 12.9629 35.7648 13.1352L43.5184 31.8632L44.1926 33.4921C44.2293 33.581 44.2475 33.6765 44.2459 33.7728C44.2443 33.869 44.223 33.9639 44.1833 34.0516C44.1437 34.1393 44.0865 34.2179 44.0152 34.2826C43.9439 34.3472 43.8601 34.3966 43.769 34.4275Z" fill="#FDEDA5"/>
<path id="Vector_4" d="M43.769 34.4274L40.036 35.6903C39.8438 34.8741 39.6173 34.0664 39.3572 33.2692L43.5184 31.8632L44.1925 33.492C44.2293 33.5809 44.2474 33.6765 44.2458 33.7727C44.2442 33.8689 44.2229 33.9638 44.1832 34.0515C44.1436 34.1392 44.0864 34.2178 44.0152 34.2825C43.9439 34.3472 43.8601 34.3965 43.769 34.4274Z" fill="#FBDF63"/>
<path id="Vector_5" d="M48.4392 32.7588C47.3945 27.7788 44.4577 20.151 36.4012 12.0943C28.3434 4.04025 20.7145 1.10485 15.7332 0.0600018C14.2689 -0.246936 12.8263 0.653345 12.4465 2.08331C12.4339 2.13169 12.4224 2.18033 12.412 2.22919C12.2575 2.96306 12.3987 3.71156 12.8091 4.33931C12.9155 4.50316 13.0388 4.65537 13.177 4.79344C13.5582 5.17463 14.0414 5.43778 14.5811 5.55056C18.8172 6.43894 25.3523 8.98322 32.4343 16.0614C39.5137 23.1423 42.0594 29.6762 42.9483 33.9104C43.059 34.443 43.3231 34.9315 43.7081 35.3158L43.7087 35.3165C44.3816 35.9893 45.3395 36.2751 46.2696 36.0795C46.3188 36.0692 46.3676 36.0575 46.4161 36.0443C47.087 35.8667 47.6605 35.4536 48.0423 34.8689C48.4526 34.2412 48.5931 33.492 48.4392 32.7588Z" fill="#F79E60"/>
<path id="Vector_6" d="M48.4393 32.7588C47.3946 27.7788 44.4578 20.151 36.4013 12.0943C28.3434 4.04025 20.7145 1.10485 15.7333 0.0600018C14.2689 -0.246936 12.8264 0.653346 12.4465 2.08331C12.8704 1.96981 13.3152 1.95799 13.7445 2.04881C18.7257 3.09366 26.3546 6.02906 34.4125 14.0831C42.469 22.1398 45.4058 29.7676 46.4506 34.7476C46.5421 35.1838 46.5295 35.626 46.4161 36.0443C47.087 35.8667 47.6604 35.4536 48.0423 34.8689C48.4526 34.2412 48.5932 33.492 48.4393 32.7588Z" fill="#D77D41"/>
<g id="Group_2">
<path id="Vector_7" d="M22.7606 18.6234C22.7605 17.4409 22.3001 16.3293 21.464 15.4931L21.4636 15.4927C19.737 13.7666 16.9277 13.7666 15.2012 15.4927C14.3647 16.329 13.9041 17.4407 13.9041 18.6235C13.9041 19.806 14.3646 20.9176 15.2008 21.7538C15.201 21.7539 15.2011 21.7541 15.2012 21.7543C16.9278 23.4804 19.7371 23.4804 21.4636 21.7543C22.2999 20.9179 22.7605 19.8061 22.7606 18.6234ZM19.0797 29.4132L19.0794 29.4129C17.3528 27.6868 14.5435 27.6868 12.817 29.4129C11.9806 30.2492 11.5199 31.361 11.5199 32.5437C11.5199 33.7262 11.9804 34.8377 12.8166 35.674C12.8167 35.6741 12.8168 35.6743 12.817 35.6744C14.5436 37.4005 17.3529 37.4005 19.0794 35.6744C19.9159 34.8381 20.3765 33.7263 20.3765 32.5436C20.3765 31.3611 19.916 30.2495 19.0797 29.4132ZM34.2746 37.6401L27.1236 40.0406L26.8154 39.7323C26.2904 39.2072 25.9138 38.5735 25.7057 37.8827C25.5812 37.4672 25.5182 37.0357 25.5187 36.6019C25.5187 35.4193 25.9794 34.3075 26.8154 33.4715C27.6792 32.609 28.8135 32.1775 29.947 32.1775C31.0806 32.1775 32.2149 32.609 33.078 33.4722C33.5347 33.9289 33.8781 34.4646 34.0969 35.0466C34.3514 35.7241 34.4362 36.4626 34.3335 37.2085L34.2746 37.6401Z" fill="#ED2061"/>
</g>
<path id="Vector_8" d="M34.2746 37.64L27.1237 40.0405L26.8154 39.7323C26.2904 39.2072 25.9138 38.5734 25.7057 37.8827L34.097 35.0466C34.3515 35.7242 34.4363 36.4626 34.3336 37.2085L34.2746 37.64Z" fill="#C71E54"/>
<g id="Group_3">
<path id="Vector_9" d="M11.0939 38.0149C11.0722 37.8649 11.0025 37.726 10.8954 37.6188C10.7882 37.5116 10.6492 37.442 10.4993 37.4203C10.4438 37.4122 9.93844 37.3432 9.29354 37.4036C8.36944 37.49 7.60988 37.8068 7.09679 38.3197C6.58369 38.8327 6.26672 39.5923 6.18029 40.5163C6.11991 41.1612 6.18901 41.6663 6.19707 41.7218C6.21938 41.8758 6.2911 42.0133 6.39563 42.1179C6.50016 42.2225 6.63769 42.2941 6.79172 42.3165C6.84713 42.3246 7.35244 42.3935 7.99744 42.3331C8.92154 42.2467 9.6811 41.9299 10.1942 41.417C10.7073 40.904 11.0243 40.1445 11.1107 39.2205C11.171 38.5755 11.102 38.0704 11.0939 38.0149ZM27.2876 30.3974C27.3082 30.3451 27.4906 29.869 27.5789 29.2274C27.7056 28.308 27.5702 27.4962 27.1877 26.8798C26.8051 26.2632 26.1378 25.7816 25.2577 25.4868C24.6434 25.281 24.1358 25.233 24.08 25.2282C23.929 25.2152 23.7778 25.2513 23.649 25.3313C23.5203 25.4112 23.4207 25.5305 23.3653 25.6716C23.3448 25.7237 23.1624 26.1999 23.074 26.8415C22.9475 27.7608 23.0828 28.5726 23.4653 29.1891C23.5754 29.3655 23.7055 29.5285 23.853 29.675C24.2391 30.0611 24.7621 30.37 25.3952 30.582C26.0094 30.7879 26.5171 30.8359 26.5729 30.8407C26.7239 30.8537 26.8751 30.8176 27.0039 30.7377C27.1327 30.6578 27.2322 30.5384 27.2876 30.3974Z" fill="#68C044"/>
</g>
<g id="Group_4">
<path id="Vector_10" d="M14.4786 25.4332L13.4058 23.7608C13.3051 23.6038 13.1462 23.4933 12.964 23.4535C12.7818 23.4137 12.5913 23.4479 12.4343 23.5486C12.2774 23.6493 12.1668 23.8082 12.127 23.9904C12.0872 24.1726 12.1215 24.3631 12.2221 24.5201L13.2949 26.1925C13.3229 26.2361 13.3547 26.2755 13.3899 26.3107C13.5127 26.433 13.6763 26.5058 13.8493 26.5149C14.0224 26.524 14.1928 26.4689 14.3277 26.3601C14.4627 26.2514 14.5527 26.0966 14.5806 25.9255C14.6084 25.7545 14.5721 25.5791 14.4786 25.4332ZM29.4816 23.5724L27.9726 22.2796C27.831 22.1583 27.647 22.0982 27.4611 22.1126C27.2751 22.1269 27.1025 22.2145 26.9812 22.3561C26.8599 22.4977 26.7998 22.6818 26.8141 22.8677C26.8285 23.0536 26.9161 23.2262 27.0577 23.3475L28.5667 24.6403C28.7083 24.7617 28.8923 24.8218 29.0782 24.8074C29.2642 24.7931 29.4368 24.7055 29.5581 24.5639C29.8109 24.269 29.7772 23.8238 29.4816 23.5724ZM23.2428 37.0469L23.432 35.2344C23.4474 35.051 23.3903 34.8688 23.2729 34.7271C23.1555 34.5853 22.9872 34.4952 22.8041 34.4761C22.621 34.457 22.4378 34.5104 22.2937 34.6249C22.1496 34.7394 22.0561 34.9059 22.0333 35.0885L21.8441 36.9011C21.8331 37.0052 21.8456 37.1105 21.8807 37.2093C21.9157 37.308 21.9724 37.3976 22.0466 37.4715C22.1405 37.5654 22.2592 37.6307 22.3887 37.66C22.5183 37.6892 22.6535 37.6811 22.7787 37.6367C22.9038 37.5923 23.0139 37.5133 23.096 37.4089C23.1782 37.3046 23.2291 37.179 23.2428 37.0469Z" fill="#FDEDA5"/>
</g>
</g>
</g>
<defs>
<clipPath id="clip0_111_2832">
<rect width="48" height="48" fill="white" transform="translate(0.5)"/>
</clipPath>
</defs>
</svg>
