<svg width="49" height="48" viewBox="0 0 49 48" fill="none" xmlns="http://www.w3.org/2000/svg">
<g id="Frame">
<g id="Group">
<g id="Group_2">
<path id="Vector" d="M36.4993 34.5022C36.4738 33.6322 36.4468 32.9377 36.3426 32.5754L36.1198 31.8029L35.4958 32.3084C35.2783 32.4854 35.1051 32.8034 34.9333 33.1184C34.6708 33.6022 34.3738 34.1497 33.8518 34.2607C33.805 34.2704 33.7572 34.2755 33.7093 34.2757C33.4393 34.2757 33.2653 34.0642 32.9803 33.5887C32.7133 33.1424 32.4118 32.6362 31.7781 32.6362C31.6716 32.6362 31.5606 32.6512 31.4391 32.6819C31.0646 32.7777 30.6796 32.8266 30.2931 32.8274C28.8621 32.8274 27.7948 32.1532 27.2856 31.7504L26.9271 31.4684L26.5933 31.7789C25.0611 33.2009 22.6686 33.5324 20.9316 33.5602L20.6308 33.5647L20.4801 33.8249C19.7616 35.0602 17.8176 35.5919 16.2576 36.0194C15.4926 36.2294 14.7688 36.4282 14.2708 36.6817C13.4676 37.0912 13.8036 38.1644 14.1598 39.3007L14.3241 39.8227L36.5526 35.8979L36.5331 35.4314C36.5188 35.1202 36.5083 34.8089 36.4993 34.5022ZM46.0798 28.2847C46.0093 28.1287 45.8113 27.8677 45.2938 27.8677C44.9391 27.8677 44.4321 27.9869 43.9723 28.1782L43.8913 28.2119L43.7451 28.3469C43.2591 28.7534 43.4751 29.5079 43.8621 30.6127C44.1156 31.3349 44.4028 32.1539 44.1718 32.5702C44.0878 32.7224 43.9348 32.8222 43.7038 32.8747C43.5876 32.9009 43.4788 32.9137 43.3798 32.9137C43.2201 32.9207 43.0627 32.8731 42.9336 32.7787C42.5098 32.4532 42.4761 31.5937 42.4431 30.7627C42.4033 29.7517 42.3456 29.2477 41.9766 28.9777L41.7703 28.8907H41.6556C41.5806 28.8907 41.4981 28.9027 41.4193 28.9252C40.4083 29.1974 40.6011 29.9302 40.7556 30.5182C40.9506 31.2659 40.9588 31.6529 40.4856 31.9702C40.2823 32.1067 40.0956 32.1757 39.9313 32.1757C39.6403 32.1757 39.3996 31.9619 39.1866 31.7729C38.9391 31.5539 38.6841 31.3274 38.3331 31.3274C38.1261 31.3274 37.9603 31.4092 37.8531 31.4707L37.6911 31.5652L37.6236 31.7399C37.4946 32.0744 37.6131 32.5064 38.2911 34.1744C38.4141 34.4744 38.5371 34.7834 38.6556 35.0932L38.8041 35.4794L39.2151 35.4314C39.9298 35.3474 46.2231 34.5862 46.8838 33.5189C47.4621 32.3602 46.3033 28.7759 46.0798 28.2847ZM12.2968 38.5282C12.2571 37.7609 12.2218 37.1954 12.1236 36.9044L11.9983 36.5324L11.6068 36.5422C11.3091 36.5489 10.7863 36.7147 10.3993 36.8527C9.90733 37.0267 9.34933 37.2239 8.88133 37.2239C8.77933 37.2239 8.68333 37.2149 8.59633 37.1962C8.22133 37.1144 8.14108 36.8302 8.09308 36.1822C8.06083 35.7389 8.01958 35.1877 7.51858 35.0572C7.4244 35.0319 7.32733 35.0191 7.22983 35.0189C6.99733 35.0189 6.79108 35.0864 6.52183 35.1809C6.32908 35.2484 6.08983 35.3332 5.82733 35.3557L5.68783 35.3744C5.54308 35.3744 5.04058 35.4029 4.66933 35.7719C4.40158 36.0374 4.26958 36.4117 4.27783 36.8849C4.31758 39.5197 4.88308 41.0039 5.95858 41.2964C6.18808 41.3587 6.47533 41.3894 6.83683 41.3894C8.30383 41.3894 10.7721 40.8644 11.9998 40.5539L12.4491 40.4399L12.3988 39.9802C12.351 39.4972 12.317 39.013 12.2968 38.5282Z" fill="#FFA963"/>
</g>
<path id="Vector_2" d="M13.439 42.3524C13.226 42.3524 13.0333 42.2872 12.866 42.1604C12.191 41.6459 12.0665 40.2224 11.9825 38.5529C11.9488 37.8794 11.9015 36.9682 11.756 36.8752C11.707 36.8627 11.6566 36.8569 11.606 36.8579C11.3285 36.8579 10.931 36.9989 10.5103 37.1474C9.98904 37.3319 9.40403 37.5389 8.88203 37.5389C8.75828 37.5389 8.63979 37.5269 8.53104 37.5037C7.86579 37.3597 7.81778 36.7207 7.77878 36.2077C7.73379 35.6002 7.66104 35.4187 7.43829 35.3602C7.37115 35.3429 7.30209 35.3344 7.23279 35.3347C7.03404 35.3347 6.83003 35.4067 6.63278 35.4764C6.35904 35.5739 6.05528 35.6819 5.66753 35.6819C5.31278 35.6819 4.94304 35.5897 4.53504 35.3999C4.17129 35.2312 3.92604 34.9582 3.80904 34.5899C3.52254 33.6907 4.09328 32.4689 4.27478 32.1164L4.46303 31.7482L4.86803 31.8412C5.01428 31.8749 5.09303 31.8937 5.18003 31.9042C5.27978 31.9154 5.37278 31.9214 5.46128 31.9214C6.25478 31.9214 6.51878 31.4752 6.75278 31.0814C6.94253 30.7627 7.12029 30.4619 7.51554 30.4619C8.21529 30.5332 8.25129 31.1017 8.27979 31.5577C8.31504 32.1059 8.37204 32.5117 8.79129 32.7427C8.89573 32.8055 9.01448 32.8406 9.13629 32.8447C9.27654 32.8447 9.42579 32.7824 9.59379 32.6534L9.91928 32.4029L10.2433 32.6549C10.7818 33.0704 12.311 34.0372 14.8768 34.0372C15.731 34.0372 16.6273 33.9262 17.5408 33.7072C17.8805 33.6254 18.1933 33.5422 18.488 33.4567L18.5638 33.4349L18.767 33.4484C18.944 33.4739 20.1133 32.0572 20.7583 32.0827L21.1955 33.5977L20.4208 34.4452C19.493 35.4592 17.753 35.9362 16.355 36.3202C15.596 36.5279 14.8843 36.7229 14.4148 36.9622C13.9325 37.2074 14.0383 37.8584 14.4373 39.1349C14.732 40.0724 15.0365 41.0437 14.657 41.6999C14.4755 42.0149 14.1643 42.2174 13.7053 42.3209C13.6179 42.3408 13.5286 42.3519 13.439 42.3524Z" fill="#F9C900"/>
<g id="Group_3">
<path id="Vector_3" d="M46.0776 28.2825C46.0101 28.1325 45.8151 27.87 45.2901 27.87C45.0426 27.87 44.7276 27.93 44.3976 28.0275C44.7801 29.7525 44.9226 31.41 44.2476 32.025C44.2701 32.2425 44.2476 32.43 44.1726 32.5725C44.0901 32.7225 43.9326 32.82 43.7076 32.8725C43.5876 32.9025 43.4751 32.9175 43.3776 32.9175C43.2178 32.9246 43.0607 32.874 42.9351 32.775C42.8504 32.7112 42.7812 32.6292 42.7326 32.535C41.6901 32.79 40.0701 33.1725 38.0676 33.615C38.1351 33.7875 38.2101 33.975 38.2926 34.1775C38.4126 34.4775 38.5401 34.785 38.6526 35.0925L38.8026 35.4825L39.2151 35.43C39.9276 35.3475 46.2201 34.5825 46.8801 33.5175C47.4651 32.3625 46.3026 28.7775 46.0776 28.2825ZM36.5001 34.5C36.4926 34.32 36.4851 34.14 36.4851 33.975C30.2151 35.3625 21.2226 37.26 14.2701 38.5575C14.3151 38.7375 14.3676 38.925 14.4351 39.135C14.5026 39.345 14.5701 39.5625 14.6301 39.7725L36.5526 35.895L36.5301 35.43C36.5226 35.1225 36.5076 34.8075 36.5001 34.5ZM4.75256 40.02C5.03006 40.725 5.43506 41.145 5.96006 41.295C6.18506 41.3625 6.47756 41.3925 6.83756 41.3925C8.30756 41.3925 10.7751 40.8675 11.9976 40.5525L12.1551 40.515C12.0801 40.0575 12.0351 39.5325 12.0051 38.97C8.69006 39.5625 6.05006 39.9675 4.75256 40.02Z" fill="#F49853"/>
</g>
<path id="Vector_4" d="M37.9497 39.2055C37.6752 39.2055 37.439 39.1305 37.2275 38.9737C36.365 38.3377 36.245 36.579 36.1835 34.5165C36.158 33.594 36.131 32.64 35.9435 32.4675C35.681 32.4697 35.516 32.7052 35.213 33.264C34.9167 33.81 34.5807 34.4272 33.9147 34.569C33.8525 34.5825 33.7865 34.5907 33.7212 34.5907C33.2135 34.5907 32.9577 34.1632 32.7102 33.7507C32.429 33.282 32.198 32.9512 31.7825 32.9512C31.6921 32.9524 31.6022 32.9645 31.5147 32.9872C31.116 33.0891 30.7061 33.141 30.2945 33.1417C29.1777 33.1417 28.274 32.7502 27.713 32.4217L26.12 31.3162L27.9792 31.4295C29.5362 31.422 30.8885 31.1122 31.997 30.5077L32.1207 30.4402L32.4537 30.4455C33.6477 30.4455 37.6887 30.2362 39.4737 27.5505L39.5847 27.387L39.7737 27.333C40.112 27.2385 40.3445 27.1005 40.4847 26.9092C40.7975 26.4847 40.6565 25.8457 40.5432 25.3335C40.5115 25.1946 40.484 25.0548 40.4607 24.9142L40.2927 23.7712L41.2707 24.3855C41.399 24.4657 41.5745 24.6067 41.7027 24.7132C42.0762 25.02 42.539 25.401 43.121 25.401C43.511 25.401 43.9362 25.2262 44.3855 24.8805C44.4132 24.8505 44.438 24.8272 44.4672 24.8032L45.0867 24.2887L45.3162 25.0627C45.6642 26.2372 45.2562 27.3975 44.1372 28.4167L44.0352 28.4977L43.9452 28.5907C43.6182 28.8675 43.838 29.5905 44.159 30.507C44.5032 31.4895 44.7252 32.2222 44.4477 32.7232C44.3157 32.9595 44.0952 33.1095 43.7727 33.1815C43.6347 33.213 43.5027 33.2295 43.3805 33.2295C43.0055 33.2295 42.809 33.0795 42.7437 33.03C42.2015 32.613 42.1625 31.6387 42.1287 30.7785C42.1017 30.1155 42.0747 29.4382 41.8265 29.256C41.7758 29.2214 41.7153 29.204 41.654 29.2065C41.602 29.2072 41.5503 29.2147 41.5002 29.229C40.8575 29.403 40.8702 29.7142 41.0592 30.4372C41.2107 31.017 41.399 31.7355 40.661 32.232C40.3962 32.4097 40.1637 32.493 39.9275 32.493C39.524 32.493 39.2615 32.2597 38.9825 32.013C38.7935 31.845 38.5617 31.6402 38.333 31.6402C38.2355 31.6402 38.1305 31.674 38.012 31.743C37.7127 31.917 38.1732 33.0495 38.5797 34.0485C39.2082 35.5927 39.917 37.3297 39.4032 38.3752C39.2187 38.7502 38.8895 39.0052 38.4237 39.1357C38.2696 39.1801 38.1102 39.2036 37.9497 39.2055Z" fill="#F9C900"/>
<path id="Vector_5" d="M33.0515 29.7787C33.2007 29.649 33.3477 29.5147 33.4865 29.3655L33.6215 29.2192L33.8187 29.1982C34.211 29.1555 34.5087 29.0235 34.7292 28.7955C35.1935 28.3125 35.2017 27.54 35.1845 27.231L35.1695 27.003L35.3262 26.8357C35.5287 26.6205 35.642 26.3167 35.7417 26.0257C35.8767 25.6282 35.9532 25.4407 36.1257 25.3132L36.1482 25.2967L36.233 25.248L36.35 25.2157L36.4962 25.1992C36.9965 25.1992 37.1922 25.6462 37.3992 26.1195C37.715 26.844 38.0247 27.4012 38.8932 27.4395L40.0295 27.4905L39.2637 28.3305C37.6362 30.117 34.9205 30.588 33.446 30.711L31.8282 30.8445L33.0515 29.7787Z" fill="#A02E14"/>
<path id="Vector_6" d="M27.9178 31.7317C26.0653 31.7317 24.3906 31.3342 23.5558 31.0972L22.8823 30.9059L23.2468 30.3074C23.4456 29.9827 23.3436 29.5462 23.2536 29.1614C23.1238 28.6109 23.0646 28.3597 23.1913 28.1227L23.3563 27.8137L23.7043 27.8422C23.8971 27.8572 24.0703 27.9547 24.4618 28.2209C24.7828 28.4384 25.2658 28.7662 25.7496 28.7662C25.8418 28.7662 25.9333 28.7542 26.0211 28.7309L26.2476 28.6687L26.4471 28.7947C26.6421 28.9199 27.1626 29.2094 27.7521 29.2094C27.8796 29.2094 28.0056 29.1952 28.1241 29.1674C28.6491 29.0474 29.0841 28.6619 29.4201 28.0229C29.7201 27.4492 29.9953 27.1762 30.3111 27.1387H30.3133C30.7558 27.1387 31.0461 27.4507 31.4826 27.9584C31.8966 28.4384 32.3638 28.9799 32.9863 29.1532L33.9591 29.4232L33.1866 30.0734C32.8656 30.3434 32.5633 30.5579 32.2611 30.7289C31.0783 31.3942 29.6173 31.7317 27.9178 31.7317Z" fill="#F40B1C"/>
<path id="Vector_7" d="M33.5645 29.5349C33.4535 29.5349 33.3395 29.5297 33.218 29.5162C32.333 29.4262 31.73 28.7279 31.2455 28.1662C30.956 27.8294 30.6297 27.4507 30.3777 27.4507C30.1715 27.4732 29.9375 27.7154 29.699 28.1677C29.3202 28.8914 28.8162 29.3302 28.202 29.4727C28.0595 29.5064 27.9087 29.5229 27.755 29.5229C27.4235 29.5229 27.0762 29.4449 26.7215 29.2919L25.964 28.9642L26.5745 28.4092C26.6267 28.3625 26.6767 28.3134 26.7245 28.2622C27.0342 27.9254 27.1572 27.5782 27.0897 27.2294C26.984 26.6759 26.4462 26.2034 26.0142 25.9057L25.0002 25.2052L26.204 24.9472C28.2957 24.4972 30.5345 24.0089 32.6975 23.5252L33.8007 23.2784L33.2885 24.2864C33.0848 24.7052 33.0161 25.177 33.092 25.6364C33.2307 26.4809 33.7632 27.0802 34.418 27.1274C34.5618 27.1378 34.7064 27.1267 34.847 27.0944L35.5467 26.9399L35.4927 27.6539C35.4507 28.2322 35.2677 28.6904 34.9527 29.0167C34.619 29.3609 34.1517 29.5349 33.5645 29.5349Z" fill="#599306"/>
<path id="Vector_8" d="M20.267 33.8692L18.053 33.5902L20.18 32.8507C21.971 32.0579 22.2095 31.2959 22.2387 31.1512L22.301 30.8527L22.589 30.7544C22.6563 30.7322 22.7224 30.7064 22.787 30.6772L22.982 30.5857L23.1852 30.6554C23.324 30.7034 24.5802 31.1279 26.2602 31.3282L27.5277 31.4789L26.5287 32.2739C24.8675 33.5947 22.4172 33.8722 20.6532 33.8722L20.267 33.8692Z" fill="#A02E14"/>
<path id="Vector_9" d="M14.9128 34.3463C12.353 34.3463 10.727 33.3863 10.1465 32.9738L9.67627 32.6393L10.1285 32.1023C10.436 31.737 10.6588 31.491 10.94 31.4048L11.03 31.3823L11.1275 31.3755C11.4418 31.3755 11.7103 31.566 12.0215 31.788C12.4213 32.0715 12.8713 32.391 13.4068 32.391C13.6715 32.391 13.9393 32.316 14.2258 32.1623C14.4673 32.031 14.6698 31.8278 14.8258 31.5608L15.1168 31.0583L15.5923 31.3928C15.8938 31.6058 16.3745 31.8585 16.9483 31.8585C17.2505 31.8585 17.5505 31.7858 17.8423 31.6425C18.5398 31.2998 18.557 30.8288 18.5075 30.249L18.5038 30.204L18.8285 29.6093L19.4495 29.8268L19.5575 29.994C19.8275 30.423 20.1628 30.954 21.2855 30.954C21.4408 30.954 21.6095 30.9443 21.791 30.9225L22.9933 30.7778L22.2875 31.7618C21.8398 32.3858 20.666 33.2835 17.615 34.014C16.6925 34.2345 15.7828 34.3463 14.9128 34.3463Z" fill="#F40B1C"/>
<path id="Vector_10" d="M16.9452 32.1712C16.0977 32.1712 15.4587 31.7084 15.224 31.5097L14.972 31.2952L15.0507 30.9742C15.242 30.0307 14.921 28.8067 14.5047 28.0889L14.1312 27.4439L14.861 27.2992C17.7811 26.717 20.6977 26.117 23.6105 25.4992L25.3685 25.1264L25.5597 25.2614C26.1845 25.5937 27.2262 26.2702 27.3987 27.1694C27.4857 27.6232 27.3372 28.0619 26.9562 28.4759C26.5782 28.8869 26.18 29.0864 25.739 29.0864C25.2215 29.0864 24.7557 28.7999 24.284 28.4819C24.092 28.3507 23.801 28.1527 23.6517 28.1527C23.4147 28.3304 23.438 28.5712 23.5587 29.0879C23.6667 29.5484 23.789 30.0704 23.4965 30.5084C23.2632 30.8602 22.799 31.0897 22.0767 31.2104C21.7812 31.2592 21.5082 31.2847 21.2637 31.2847C19.9985 31.2847 19.5785 30.6187 19.301 30.1777C19.1112 29.8754 19.0385 29.8027 18.926 29.8027C18.869 29.8057 18.8412 29.8177 18.836 29.8252C18.791 29.8762 18.8082 30.0742 18.821 30.2182C18.863 30.7132 18.9275 31.4609 17.981 31.9259C17.6592 32.0862 17.3047 32.1701 16.9452 32.1712ZM38.978 27.7649C37.7735 27.7649 37.409 26.9294 37.115 26.2582C36.89 25.7422 36.7527 25.5127 36.53 25.5127C36.4811 25.5133 36.4325 25.5198 36.3852 25.5322C36.2405 25.5689 36.1505 25.8007 36.0402 26.1247C35.8505 26.6834 35.5902 27.4492 34.5627 27.4492C34.5087 27.4492 34.4532 27.4469 34.394 27.4417C33.467 27.3742 32.9165 26.5117 32.7815 25.6874C32.6345 24.7814 32.939 23.6759 33.9537 23.2522C39.059 22.0912 42.2562 21.3029 43.481 20.9032L43.7765 20.8057L44.0067 21.0172C44.345 21.3284 45.4482 22.4377 45.4137 23.6369C45.3957 24.2129 45.1145 24.7154 44.5775 25.1294C44.0705 25.5209 43.5935 25.7114 43.1195 25.7114C42.4197 25.7114 41.9315 25.3094 41.5017 24.9547C41.2655 24.7619 41.0247 24.5639 40.8695 24.5639C40.781 24.5789 40.703 24.5977 40.8507 25.2652C40.9782 25.8404 41.1357 26.5567 40.7382 27.0967C40.4592 27.4762 39.962 27.6914 39.2172 27.7537C39.1347 27.7612 39.0545 27.7649 38.978 27.7649Z" fill="#77A505"/>
<path id="Vector_11" d="M9.13406 33.1544C8.96007 33.1522 8.78959 33.1052 8.63906 33.0179C8.03681 32.6872 7.99781 32.0729 7.96631 31.5779C7.92506 30.9232 7.83281 30.8092 7.55606 30.7792C7.32506 30.7799 7.21856 30.9149 7.03481 31.2239C6.78131 31.6514 6.43481 32.2364 5.46581 32.2364C5.36831 32.2364 5.26181 32.2304 5.14556 32.2177C4.43381 32.1359 3.90956 31.8592 3.58556 31.3942C3.13481 30.7447 3.21431 29.9167 3.26906 29.5919L3.34256 29.1644L3.77606 29.1494C5.14181 29.1007 8.60606 28.5314 14.0706 27.4559L14.3901 27.3937L14.5911 27.6487C14.9811 28.1399 15.6328 29.6804 15.3711 31.0102C15.2421 31.6627 14.8971 32.1562 14.3736 32.4389C14.0421 32.6189 13.7233 32.7067 13.4008 32.7067C12.7716 32.7067 12.2968 32.3692 11.8776 32.0722C11.6136 31.8847 11.3421 31.6897 11.1351 31.6897C11.1002 31.6897 11.0656 31.695 11.0323 31.7054C10.8193 31.7714 10.5913 32.0429 10.3708 32.3054C9.95231 32.8019 9.61781 33.1544 9.13331 33.1544H9.13406Z" fill="#599306"/>
<path id="Vector_12" d="M3.95083 21.8227C7.76308 17.1419 16.8441 6.23995 18.6756 5.6677C18.7881 5.6332 18.9171 5.6167 19.0708 5.6167C22.0663 5.6167 39.2383 12.7124 42.4933 15.0067L43.1623 15.5504L42.3238 15.9577C40.5351 16.4324 31.1586 18.9007 22.1976 20.8904C13.3131 22.8629 4.48633 24.4387 2.80783 24.7349L1.92883 24.5369C1.92883 24.5369 3.03583 22.9469 3.95083 21.8227Z" fill="#FCC683"/>
<path id="Vector_13" d="M43.16 15.5474L42.32 15.9599C40.535 16.4324 31.16 18.8999 22.1975 20.8874C13.31 22.8599 4.49 24.4424 2.81 24.7349L1.9325 24.5399C1.9325 24.5399 2.4425 23.7974 3.0575 22.9724C6.785 22.2674 11.9 21.2624 17.03 20.1224C25.67 18.2024 34.7 15.8399 36.935 15.2474C37.085 15.2099 37.22 15.1574 37.355 15.0899L37.9925 14.7824L37.4075 14.3099C37.3475 14.2649 37.3025 14.2274 37.2425 14.1824C34.6325 12.4049 24.335 7.98743 18.185 5.93243C18.38 5.79743 18.545 5.70743 18.6725 5.66993C18.785 5.63243 18.92 5.61743 19.07 5.61743C22.0625 5.61743 39.2375 12.7124 42.4925 15.0074L43.16 15.5474Z" fill="#F7BE7F"/>
<path id="Vector_14" d="M3.76627 29.5372C3.62902 29.5372 3.50527 29.5244 3.38977 29.4989L3.28852 29.4689C2.70802 29.1269 2.26252 28.2742 2.01277 27.0974C1.84927 26.3287 1.80052 25.5689 1.87702 24.9584L1.92952 24.5369L2.35702 24.4694C2.42977 24.4574 12.122 22.8044 22.13 20.5829C29.8378 18.8722 37.7075 16.8442 40.9978 15.9809C41.9255 15.7379 43.1623 15.5504 43.1623 15.5504L43.2695 15.8054C44.3225 17.9129 45.242 20.1817 44.069 21.0097C43.6078 21.3352 42.9868 21.4717 42.44 21.5917C42.2773 21.6269 42.1235 21.6607 41.9863 21.6974C40.5845 22.0724 39.1858 22.4039 37.8725 22.7114C33.9485 23.6332 30.0673 24.4664 26.4575 25.2307C23.4883 25.8607 20.393 26.4982 17.2573 27.1259C14.7367 27.6339 12.2121 28.1219 9.68377 28.5899L9.33877 28.6537C7.80727 28.9357 6.23902 29.2252 4.68127 29.4284C4.60927 29.4374 4.53202 29.4509 4.45327 29.4637C4.24402 29.4982 4.00777 29.5372 3.76627 29.5372Z" fill="#FFA963"/>
<path id="Vector_15" d="M44.0675 21.0075C43.61 21.3375 42.9875 21.4725 42.44 21.5925C42.275 21.63 42.125 21.66 41.99 21.6975C40.5875 22.0725 39.185 22.4025 37.8725 22.71C33.95 23.6325 30.065 24.465 26.4575 25.23C23.4875 25.86 20.39 26.4975 17.255 27.1275C14.27 27.7275 11.8625 28.1925 9.6875 28.59L9.3425 28.65C7.805 28.935 6.2375 29.2275 4.685 29.43C4.61 29.4375 4.535 29.4525 4.4525 29.46C4.2425 29.4975 4.01 29.535 3.77 29.535C3.6275 29.535 3.5075 29.5275 3.3875 29.4975L3.29 29.4675C3.0125 29.31 2.765 29.0325 2.5625 28.6575L2.7275 28.635C2.81 28.62 2.885 28.605 2.96 28.5975C4.5125 28.395 6.0875 28.1025 7.6175 27.825L7.9625 27.7575C10.1375 27.36 12.545 26.895 15.53 26.295C18.6725 25.665 21.7625 25.0275 24.7325 24.3975C28.34 23.64 32.225 22.8 36.1475 21.885C37.46 21.5775 38.8625 21.24 40.265 20.865C40.4 20.8275 40.5575 20.7975 40.715 20.76C41.2625 20.64 41.885 20.505 42.3425 20.1825C43.3775 19.455 42.7925 17.625 41.93 15.765C42.5825 15.6375 43.16 15.5475 43.16 15.5475L43.2725 15.8025C44.3225 17.91 45.245 20.1825 44.0675 21.0075Z" fill="#F49853"/>
</g>
</g>
</svg>
