<?xml version="1.0" ?><svg id="Layer_1_1_" style="enable-background:new 0 0 64 64;" version="1.1" viewBox="0 0 64 64" xml:space="preserve" xmlns="http://www.w3.org/2000/svg" xmlns:xlink="http://www.w3.org/1999/xlink"><g><g><polygon points="38.088,41 40,29 40,28 4,28 4,29 5.912,41 7.382,51 9,62 35,62   " style="fill:#FF826E;"/><polygon points="36.765,50 7.235,50 7.382,51 7.676,53 36.324,53   " style="fill:#FC6E51;"/><path d="M37.94,42.006C35.762,42.039,34,43.814,34,46c0,0.181,0.03,0.353,0.053,0.527    C32.834,47.213,32,48.504,32,50h-2v6.472L32.764,62H35L37.94,42.006z" style="fill:#FC6E51;"/><path d="M39,43.965V43c0-1.105-0.895-2-2-2h-6l-0.464-0.464C28.272,38.272,25.201,37,22,37h0    c-3.201,0-6.272,1.272-8.536,3.536L13,41H7c-1.105,0-2,0.895-2,2v6c0,1.105,0.895,2,2,2h32V43.965z" style="fill:#FCD770;"/><polygon points="32,52 60,52 60,56 57,62 35,62 32,56   " style="fill:#E6E9ED;"/><path d="M39,43.965V43c0-0.381-0.112-0.732-0.297-1.035C38.525,41.976,38.349,42,38.169,42H38    c-2.206,0-4,1.794-4,4c0,0.181,0.03,0.353,0.053,0.527C32.834,47.213,32,48.504,32,50c0,0.347,0.058,0.678,0.142,1H39V43.965z" style="fill:#FFC729;"/><path d="M50,48h6c1.105,0,2,0.895,2,2v0c0,1.105-0.895,2-2,2H36c-1.105,0-2-0.895-2-2v0    c0-1.105,0.895-2,2-2h6H50z" style="fill:#FFEAA7;"/><path d="M38,48c-1.105,0-2-0.895-2-2v0c0-1.105,0.895-2,2-2h0.169c3.618,0,6.97-1.898,8.831-5l0,0h0    c2.907,0,5.41,2.052,5.981,4.903L53,44h1c1.105,0,2,0.895,2,2v0c0,1.105-0.895,2-2,2H38z" style="fill:#FFEAA7;"/><polygon points="32,56 53,56 55,56 60,56 60,52 32,52   " style="fill:#CCD1D9;"/><polygon points="7,28 5,2 9,2 11,28   " style="fill:#FCD770;"/><rect height="20" style="fill:#FCD770;" width="4" x="14" y="8"/><rect height="26" style="fill:#FCD770;" width="4" x="26" y="2"/><polygon points="30,12 30,28 34,28 35.556,10.889   " style="fill:#FCD770;"/><polygon points="31.991,28 34,28 35.556,10.889 33.51,11.298   " style="fill:#FFC729;"/><polygon points="34,28 36,6 40,7 38,28   " style="fill:#FCD770;"/><polygon points="18,12 18,28 23,28 21.667,12   " style="fill:#FCD770;"/><polygon points="20.993,28 23,28 21.667,12 19.66,12   " style="fill:#FFC729;"/><polygon points="26,3 26,28 23,28 21,4   " style="fill:#FCD770;"/><polygon points="14,17 14,28 11,28 10,16   " style="fill:#FFC729;"/><rect height="16" style="fill:#FFC729;" width="2" x="18" y="12"/><polygon points="24,28 26,28 26,3 24,3.4   " style="fill:#FFC729;"/><polygon points="32,11.6 30,12 30,28 32,28   " style="fill:#FFC729;"/><polygon points="35,26 34.182,26 10.846,26 10,26 6.846,26 7,28 10,28 11,28 34,28 35,28 38,28 38.19,26       " style="fill:#FFC729;"/></g><path d="M58.816,51C58.928,50.686,59,50.352,59,50c0-1.383-0.945-2.539-2.22-2.884C56.919,46.77,57,46.395,57,46   c0-1.654-1.346-3-3-3h-0.219c-0.91-2.937-3.654-5-6.781-5h-0.566l-0.291,0.485c-1.355,2.258-3.624,3.803-6.163,4.314   c-0.05-0.746-0.361-1.422-0.859-1.92l1.867-11.722L41,27h-1.9l1.977-20.762L35.11,4.747l-0.483,5.308L31,10.78V1h-6v1.18   l-5.071,1.014L20.58,11H19V7h-6v8.719l-1.98-0.495L9.926,1H3.92l2,26H3v2l1.88,11.879C4.337,41.423,4,42.173,4,43v6   c0,1.487,1.09,2.716,2.511,2.951L8.136,63h26.246H35h22.618L61,56.236V51H58.816z M47.53,40.028c2.193,0.23,4.03,1.871,4.47,4.071   L52.181,45H54c0.551,0,1,0.449,1,1s-0.449,1-1,1h-4v2h6c0.551,0,1,0.449,1,1s-0.449,1-1,1H36c-0.551,0-1-0.449-1-1s0.449-1,1-1h6   v-2h-4c-0.551,0-1-0.449-1-1s0.449-1,1-1h0.169C41.911,45,45.444,43.109,47.53,40.028z M38.923,7.762L37.091,27h-1.995L36.89,7.253   L38.923,7.762z M34.438,12.132L33.087,27H31V12.82L34.438,12.132z M29,3v24h-2V3H29z M25,4.22V27h-1.08L22.071,4.806L25,4.22z    M20.746,13l1.167,14H19V13H20.746z M17,9v18h-2V9H17z M13,17.781V27h-1.074l-0.744-9.674L13,17.781z M6.08,3h1.994L9.92,27H7.926   L6.08,3z M5.013,29h33.975l-1.756,11.023C37.154,40.017,37.079,40,37,40h-5.586l-0.171-0.171C28.774,37.36,25.491,36,22,36   s-6.774,1.36-9.243,3.829L12.586,40H7c-0.079,0-0.154,0.017-0.231,0.023L5.013,29z M6,49v-6c0-0.551,0.449-1,1-1h6.414l0.757-0.757   C16.263,39.152,19.043,38,22,38s5.737,1.152,7.829,3.243L30.586,42H37c0.551,0,1,0.449,1,1c-1.654,0-3,1.346-3,3   c0,0.395,0.081,0.77,0.22,1.116C33.945,47.461,33,48.617,33,50H7C6.449,50,6,49.551,6,49z M9.864,61L8.54,52H31v4.236L33.382,61   H9.864z M56.382,61H35.618l-2-4H53v-2H33v-2h3h20h3v2h-4v2h3.382L56.382,61z"/></g></svg>