<svg width="141" height="190" viewBox="0 0 141 190" fill="none" xmlns="http://www.w3.org/2000/svg">
<g clip-path="url(#clip0_169_3552)">
<rect width="140.5" height="190" rx="12" fill="url(#paint0_radial_169_3552)"/>
<circle cx="70" cy="96" r="58" fill="white"/>
</g>
<path d="M85.0017 125.441C85.0017 125.441 94.2618 122.594 99.8626 121.949C105.461 121.306 108.01 121.135 108.01 121.135C108.01 121.135 108.586 121.01 108.701 121.632C108.812 122.197 107.937 122.323 107.937 122.323C90.8341 127.462 78.7538 132.624 77.3238 133.217C75.9816 133.777 58.5948 141.415 58.5948 141.415C58.5948 141.415 56.4614 142.194 54.7183 141.874C52.9774 141.557 52.6225 140.768 52.4889 139.96C52.4889 139.96 51.9754 138.186 54.4971 137.332C56.8309 136.543 63.0579 133.756 63.0579 133.756L79.4301 127.264L85.0017 125.441Z" fill="#F5C323"/>
<path d="M111.113 84.6816C110.665 84.6937 110.141 85.0658 110.141 85.0658C103.92 83.7695 96.8926 90.3396 96.4855 93.2558C96.1828 95.3788 96.794 96.8835 98.5517 97.2509C100.309 97.6204 101.908 96.9808 103.284 96.459C104.657 95.9329 107.381 93.8243 107.381 93.8243C107.648 94.5028 109.122 95.1558 110.466 95.2122C111.815 95.2707 114.163 94.178 114.559 93.9067C114.956 93.6374 114.945 93.1003 114.857 92.7893C114.77 92.4783 113.086 92.2811 112.462 92.2247C111.84 92.1684 111.301 91.8574 111.043 91.1623C110.79 90.4692 111.682 88.3142 112.097 86.7987C112.508 85.2811 111.671 84.7272 111.203 84.6855C111.174 84.6829 111.143 84.6808 111.113 84.6816ZM91.6005 84.8345C91.2397 84.8435 91.0085 84.8815 91.0085 84.8815C91.0085 84.8815 83.3068 85.9972 82.8851 85.9283C82.4175 85.8532 82.2042 85.7318 81.8932 85.7401C81.5821 85.7422 81.1798 85.9485 80.9836 86.1322C80.3156 86.7668 80.7523 87.8612 80.7523 87.8612C80.8984 88.3788 81.4941 88.9164 81.9951 89.1314C83.0514 89.5781 89.5775 88.7511 89.5775 88.7511L81.8971 95.0319C81.8971 95.0319 79.9684 96.41 79.2899 98.2742C78.6115 100.14 79.8116 100.214 79.9682 100.203C80.1185 100.191 81.3721 99.8694 82.5558 99.7797C83.7456 99.6899 86.9759 99.8287 88.1386 99.8934C89.2993 99.956 92.0417 99.8706 93.9058 99.0544C95.7678 98.2361 96.4337 97.406 96.2542 96.8549C96.0747 96.3059 95.421 96.4998 95.2937 96.5374C95.1643 96.5729 94.9273 96.5985 93.894 96.753C92.8607 96.9054 89.8349 96.3961 89.3109 96.3335C88.7869 96.2709 86.8997 96.0747 86.8997 96.0747C87.1294 95.985 93.8039 89.1589 93.8039 89.1589C93.8039 89.1589 95.7958 87.0137 94.6978 85.8656C93.8065 84.9313 92.3942 84.8147 91.6005 84.8345ZM107.824 87.9004C107.824 87.9004 107.003 89.7504 106.867 90.1116C106.731 90.4748 106.683 91.0407 106.683 91.0407C106.683 91.0407 104.508 92.2884 103.499 92.6913C102.493 93.0921 101.229 93.0128 101.229 93.0128C102.492 88.7438 107.824 87.9004 107.824 87.9004ZM77.1179 88.7903C75.3357 88.8091 72.1806 88.9373 70.9156 89.1393C69.2247 89.4085 67.9963 89.2625 67.0382 89.202C66.0779 89.1394 65.6856 89.9508 65.6856 89.9508C64.7378 91.9402 68.1947 92.3894 68.1947 92.3894C70.4576 92.6211 74.6362 91.7543 74.6362 91.7543C67.5053 97.5867 63.6961 101.098 62.9529 102.277C62.4373 103.104 61.6788 104.566 62.6746 105.696C63.6703 106.825 65.9718 105.602 65.9718 105.602C68.8984 104.758 74.2598 104.833 74.2598 104.833C74.2598 104.833 77.0362 104.799 81.7873 104.97C86.5343 105.144 89.0586 103.5 89.7892 103.049C90.5177 102.601 90.5958 102.158 90.4204 101.865C90.2409 101.579 89.8182 101.418 89.3423 101.622C88.8621 101.829 87.0561 102.214 86.0019 102.344C84.9478 102.469 82.5886 102.259 78.1569 101.497C73.7251 100.739 69.9982 101.493 69.9982 101.493L75.5732 96.2041C75.5732 96.2041 79.091 92.3609 79.5252 90.9623C79.9594 89.5637 78.9895 88.8832 78.3215 88.806C78.1535 88.7867 77.712 88.7841 77.1179 88.7903ZM62.4981 89.5431C62.4189 89.5426 62.337 89.552 62.2511 89.5627C61.5623 89.6483 61.4866 90.5977 61.4866 90.5977C56.5267 97.1253 55.9522 99.2254 55.7038 101.179C55.4533 103.131 56.415 105.603 57.966 105.621C59.517 105.64 59.0363 104.296 59.0363 104.296C59.0175 103.973 60.3768 100.787 61.122 99.4739C62.7315 96.639 63.7188 93.701 63.5685 91.6719C63.4369 89.9002 63.0526 89.5462 62.4981 89.5431ZM44.3146 90.088C41.3375 90.12 38.5603 91.1372 37.1242 92.0718C34.5691 93.7293 35.4874 95.5417 35.7442 95.7964C35.9989 96.0531 36.5867 96.3843 39.3276 95.3259C39.3276 95.3259 32.3035 103.291 28.9655 120.21C28.9655 120.21 28.4062 124.397 29.9927 124.589C31.5834 124.777 32.5365 122.396 33.0939 120.935C33.3319 120.307 43.6604 96.4461 41.7858 95.1456C41.7858 95.1456 48.2235 94.7887 48.9291 99.1641C49.6326 103.54 42.852 106.942 40.8605 107.335C38.8712 107.729 38.9104 108.538 39.0336 108.64C39.1588 108.745 39.5943 109.325 42.1661 108.93C44.7379 108.54 50.6558 106.748 53.2338 101.285C53.2338 101.285 55.711 96.1047 51.0893 92.2992C49.0682 90.6352 46.6301 90.0632 44.3146 90.088ZM96.0425 102.795C95.5353 102.822 95.2388 103.214 95.2388 103.214C94.6689 103.753 91.5535 108.817 91.5535 108.817C91.5535 108.817 89.4699 109.199 89.0482 109.256C88.6307 109.312 88.1896 109.216 88.1896 109.216C87.4256 108.834 85.7431 109.157 85.8412 110.647C85.9351 112.14 89.9107 112.122 89.9107 112.122L89.9029 112.169C89.9029 112.169 88.4142 116.134 88.0093 118.43C87.6106 120.728 87.8039 124.136 87.8289 124.366C87.854 124.595 88.1111 125.54 88.6601 125.565C89.2112 125.59 89.4638 125.056 89.4638 125.056L91.6475 118.583L94.3135 111.385C95.3322 111.205 105.001 107.327 105.001 107.327C105.001 107.327 105.987 106.891 105.895 106.507C105.784 106.044 105.213 106.19 105.213 106.19L95.8308 107.934L97.1324 105.308C97.1324 105.308 97.8495 103.73 96.858 103.053C96.5481 102.843 96.2731 102.782 96.0425 102.795ZM67.1009 107.037C66.8504 107.037 66.3511 107.133 64.8544 109.64C63.3639 112.149 61.7885 117.689 61.7885 117.689L54.9903 119.128C54.9903 119.128 59.561 107.491 57.2563 107.566C54.9538 107.641 49.3956 120.296 49.3956 120.296C49.3956 120.296 46.6757 120.636 45.0516 120.939C45.0516 120.939 43.8797 121.123 43.7461 121.998C43.6167 122.872 44.0872 123.413 44.0872 123.413C44.6237 124.177 47.796 124.522 47.796 124.522C47.0884 126.704 46.1855 130.495 46.2043 131.662C46.2251 132.831 46.4178 134.784 47.8352 134.955C48.8706 135.08 50.1698 134.381 50.7835 133.308C51.3972 132.237 53.4652 123.946 53.4652 123.946C54.4045 123.85 60.5692 121.378 60.5692 121.378C60.5296 121.608 59.7445 124.365 59.6714 126.298C59.5921 128.233 60.4355 129.078 61.2788 129.137C62.1201 129.193 62.9999 128.581 63.7096 127.506C64.4173 126.435 66.2423 118.473 66.2423 118.473L68.8887 116.752C68.8887 116.752 69.5822 116.218 69.3317 115.811C69.0833 115.404 68.6417 115.611 68.6417 115.611L66.7716 116.324C66.7716 116.324 67.9616 109.411 68.1516 108.244C68.3416 107.073 67.3493 107.037 67.1009 107.037ZM83.7751 110.671C83.3022 110.679 82.8772 111 82.8772 111C82.2072 111.537 80.7719 114.486 80.7719 114.486C79.605 116.438 73.7933 120.057 73.7933 120.057C74.5281 118.18 74.6588 116.4 74.546 115.321C74.4333 114.237 73.5376 112.651 72.2329 112.396C70.9282 112.141 69.6299 112.483 69.3356 112.819C69.0371 113.153 69.1347 113.491 69.7943 113.819C70.4477 114.147 70.7627 114.87 70.7627 114.87C70.9005 115.156 70.7444 115.645 70.7235 115.732C70.7047 115.818 69.5473 119.312 69.5473 119.312C69.5473 119.312 68.5127 122.682 69.9864 123.77C71.4602 124.863 72.4807 124.747 74.8166 123.695C77.1546 122.639 79.9251 118.642 79.9251 118.642C79.8478 121.324 81.3826 122.66 82.2656 123.37C83.1445 124.077 83.779 123.887 83.779 123.887C84.6599 123.37 84.1053 122.603 84.026 122.448C83.9529 122.296 83.9676 117.586 84.4102 115.152C84.8507 112.722 84.7905 111.518 84.7905 111.518C84.5402 110.847 84.1428 110.665 83.7751 110.671Z" fill="black"/>
<path d="M67.356 78.6896C67.356 78.6896 68.0658 78.3347 68.3622 78.6395C68.6607 78.9484 68.4833 79.4097 68.2516 79.8314C68.022 80.2531 64.755 85.2965 63.6445 86.2797C62.9535 86.8892 61.9599 86.9936 61.1812 86.5344C60.4026 86.0751 60.5028 84.5659 60.7846 83.9292C61.0643 83.2925 61.9974 81.5014 63.9117 80.3178C65.828 79.1321 67.356 78.6896 67.356 78.6896Z" fill="#018E66"/>
<path d="M109.912 72.0096L108.532 71.0556C104.628 67.9932 88.7863 61.714 88.7863 61.714C88.7863 61.714 87.6778 59.1965 87.0391 57.9711C85.2522 54.5372 82.5718 51.8339 82.4424 51.7421C82.3171 51.6502 82.1898 51.6565 82.1898 51.6565L82.0604 51.6815L77.4136 52.9277L66.7402 56.0193C66.7402 56.0193 59.4382 58.3051 59.0937 58.4387C58.7493 58.5703 58.4988 58.7999 58.4988 58.7999C58.4988 58.7999 56.0105 63.0918 55.8017 63.5865C55.5888 64.0854 52.7164 69.6403 52.7164 69.6403L45.5939 73.0095C44.9509 73.356 44.9321 73.3247 40.0223 76.3036L34.05 80.4786C34.05 80.4786 28.3929 84.7475 27.9211 85.1775C27.4493 85.6075 26.9316 86.5114 27.4201 87.3068C27.9065 88.1021 29.1319 87.9581 29.1319 87.9581L35.2101 86.2269L46.7872 83.1825L59.9976 80.457L61.8847 80.3658C62.2876 79.9901 62.751 79.6248 63.2771 79.2949C65.1078 78.1635 66.615 77.6583 66.9511 77.5561C67.6608 77.2408 68.5918 77.1511 69.2243 77.8045C69.4894 78.0758 69.7254 78.4829 69.717 79.057L70.481 78.9275L70.5186 78.9192L85.1248 77.03C85.1248 77.03 94.4705 76.0781 97.5809 75.9842C105.165 75.7545 108.801 74.6189 108.801 74.6189C109.106 74.4916 110.129 74.1305 110.331 73.2976C110.53 72.4605 109.912 72.0096 109.912 72.0096Z" fill="#DA0021"/>
<path d="M84.6454 51C84.6296 51.0004 84.6151 51.0042 84.5984 51.0118C84.4648 51.0723 84.5239 51.2353 84.5239 51.2353L85.9863 58.3785C85.9863 58.3785 86.5393 62.1359 86.8566 62.8519C87.1802 63.5679 89.4325 64.3143 89.4325 64.3143C93.9122 65.3872 111.152 71.5908 111.152 71.5908C111.152 71.5908 112.252 71.9997 112.45 72.0143C112.653 72.0331 113.263 71.9239 113.505 71.3164C113.749 70.7069 113.235 70.2071 113.191 70.1716C113.149 70.1361 112.701 69.9168 112.701 69.9168C107.9 67.4389 98.5073 64.1497 98.0459 64.0202C97.5888 63.895 88.9149 61.366 88.9149 61.366C88.9149 61.366 86.3446 54.3051 86.1901 53.8228C86.0378 53.3365 84.8415 51.149 84.8415 51.149C84.8415 51.149 84.7565 50.9974 84.6454 51ZM80.6386 51.694C80.5544 51.6933 80.5014 51.7018 80.5014 51.7018L75.9849 52.8545C75.9849 52.8545 58.5668 57.8475 57.8758 58.0688C57.187 58.2901 57.0172 58.7902 57.0172 58.7902C55.2303 61.7941 52.5115 67.4228 52.3988 67.7526C52.284 68.0845 52.4068 68.2161 52.5321 68.2662C52.6573 68.3184 52.7598 68.2909 52.7869 68.2388C52.8182 68.1845 58.4953 59.8997 58.4953 59.8997L70.2609 57.1161C70.2609 57.1161 80.7432 53.8246 80.9248 53.764C81.1044 53.7035 81.9609 53.3297 81.6541 52.4467C81.4255 51.7845 80.8913 51.696 80.6386 51.694ZM51.9126 69.8658C51.8275 69.8674 51.7676 69.8854 51.7676 69.8854C51.7676 69.8854 51.1417 70.1345 49.3486 70.9047C45.8646 72.3952 40.2607 75.7545 40.2607 75.7545C35.8457 78.2073 26.5779 85.7245 26.5779 85.7245C26.5779 85.7245 25.6587 86.338 26.1388 87.4652C26.6148 88.5966 27.8639 88.4454 27.8639 88.4454L41.3232 84.8267C42.3189 84.3653 59.8792 80.7846 59.8792 80.7846L61.7885 80.4592C62.2144 80.05 62.7043 79.6517 63.2784 79.2948C65.1091 78.1633 66.6158 77.6602 66.9519 77.5579C67.6617 77.2427 68.5933 77.1516 69.2259 77.8049C69.5014 78.0888 69.7451 78.513 69.7159 79.1183L70.4844 78.989L70.504 78.985C80.5031 77.2545 102.508 75.7937 102.508 75.7937C103.311 75.6684 105.489 74.9548 105.079 72.7984C104.762 71.1179 101.908 71.0162 101.488 71.0537C101.064 71.0934 72.62 74.8457 70.7392 75.1546C60.4353 76.8372 42.766 81.2786 42.766 81.2786L31.9256 84.4738C32.1302 84.0542 40.8 77.9379 41.3114 77.5579C41.8229 77.1718 51.8656 70.9988 51.8656 70.9988C51.8656 70.9988 52.6631 70.6823 52.4106 70.1834C52.2709 69.9107 52.0546 69.8632 51.9126 69.8658Z" fill="black"/>
<defs>
<radialGradient id="paint0_radial_169_3552" cx="0" cy="0" r="1" gradientUnits="userSpaceOnUse" gradientTransform="translate(72 102.25) rotate(91.0991) scale(104.269 77.1043)">
<stop stop-color="#E33853"/>
<stop offset="1" stop-color="#C10B28"/>
</radialGradient>
<clipPath id="clip0_169_3552">
<rect width="140.5" height="190" fill="white"/>
</clipPath>
</defs>
</svg>
