<svg width="141" height="190" viewBox="0 0 141 190" fill="none" xmlns="http://www.w3.org/2000/svg">
<g clip-path="url(#clip0_46_6688)">
<rect width="140.5" height="190" rx="12" fill="url(#paint0_linear_46_6688)"/>
<path d="M115 94.9999C115 119.829 94.8623 140 69.9785 140C45.1377 139.957 25 119.829 25 94.9999C25 70.1708 45.1377 50 70.0215 50C94.8623 50 115 70.1281 115 94.9999Z" fill="white"/>
<path d="M74.4831 69.4445C74.0988 69.3591 72.1775 69.0599 69.9574 69.0599C67.7374 69.0599 65.8161 69.3591 65.4319 69.4445C65.2185 69.4872 65.1329 69.2735 65.3037 69.1454C65.4744 69.0172 69.9574 65.5985 69.9574 65.5985C69.9574 65.5985 74.4404 69.0172 74.6112 69.1454C74.7819 69.2735 74.6964 69.4872 74.4831 69.4445ZM66.67 91.7095C66.67 91.7095 66.4137 91.7949 66.3712 92.0086C67.3103 92.7351 67.9508 94.4018 69.9148 94.4018C71.8789 94.4018 72.5192 92.7351 73.4585 92.0086C73.4158 91.7949 73.1597 91.7095 73.1597 91.7095C73.1597 91.7095 71.9214 92.0086 69.9148 92.0086C67.9081 92.0085 66.67 91.7095 66.67 91.7095ZM69.9574 88.9316C69.4023 88.9316 69.2743 88.718 68.9326 88.718C68.5911 88.718 67.9079 89.0172 67.7372 89.2734C67.7372 89.4018 67.7798 89.5299 67.9079 89.6155C68.7191 89.7436 69.0606 90.1709 69.9999 90.1709C70.9392 90.1709 71.2807 89.7436 72.0919 89.6155C72.1773 89.5301 72.22 89.4018 72.2626 89.2734C72.1344 89.0172 71.4087 88.718 71.0672 88.718C70.5979 88.718 70.4697 88.9316 69.9574 88.9316ZM114.829 97.4357C114.787 98.5043 114.658 99.5724 114.53 100.641C109.45 101.496 107.614 96.9655 102.405 97.1795C102.706 98.2941 102.963 99.4203 103.174 100.556C107.486 100.556 109.193 104.573 113.975 103.974C113.722 105.196 113.423 106.407 113.079 107.607C109.279 107.991 107.955 104.231 103.601 104.316C103.643 104.957 103.643 105.555 103.643 106.197V107.265C107.358 107.222 108.596 110.684 112.14 110.513C111.713 111.709 111.2 112.906 110.645 114.06C108.084 113.932 107.23 110.641 103.345 110.897C103.216 111.752 103.088 112.564 102.918 113.376C106.29 113.12 107.016 116.239 109.45 116.496C108.852 117.607 108.169 118.718 107.486 119.786C106.034 119.017 104.796 116.709 102.106 116.539C102.405 115.684 102.619 114.829 102.832 113.932C100.442 113.932 97.6664 112.992 95.3609 110.898C96.0866 106.624 89.4689 102.265 89.4689 99.1453C89.4689 95.7693 91.1767 93.889 91.1767 89.3162C91.1767 85.8974 89.5115 82.2222 87.0354 79.7009C86.5658 79.2308 86.0536 78.8035 85.4983 78.4616C87.7611 81.282 89.5543 84.658 89.5543 88.5043C89.5543 92.8205 87.5478 95.0855 87.5478 99.0599C87.5478 103.034 93.3541 106.496 93.3541 110.598C93.3541 112.222 92.8419 113.803 91.134 116.88C93.7383 119.487 97.1539 120.898 99.3313 120.898C100.057 120.898 100.441 120.684 100.698 120.128C100.911 119.658 101.125 119.145 101.338 118.675C103.686 118.761 104.796 120.898 106.077 121.795C105.351 122.778 104.625 123.675 103.814 124.573C102.918 123.59 101.765 121.966 100.015 121.496C99.7157 122.094 99.3742 122.692 99.0327 123.291C100.527 123.675 101.552 125.214 102.32 126.197C101.466 127.094 100.57 127.906 99.673 128.718C99.1179 127.821 98.2215 126.71 97.1968 126.069C96.8125 126.582 96.4281 127.052 96.0441 127.522C96.8979 128.12 97.6664 129.146 98.1361 130C97.0686 130.855 95.9585 131.667 94.8485 132.436C94.2934 127.864 88.0601 124.744 89.7252 119.445C89.1701 120.385 88.5296 121.539 88.5296 122.949C88.5296 126.796 92.6282 129.83 92.9272 133.633C92.0733 134.146 91.2194 134.616 90.3228 135.086C90.1948 130.898 85.8398 126.325 85.8398 122.864C85.8398 119.018 90.8779 115.172 90.8779 110.642C90.8779 106.112 85.0714 102.949 85.0714 98.9752C85.0714 95.0008 87.5478 92.6931 87.5478 87.6075C87.5478 83.8896 85.7973 80.0863 83.0221 77.6929C82.5524 77.2656 82.0828 76.9238 81.485 76.6246C84.0893 79.7444 85.5837 82.5221 85.5837 86.7954C85.5837 91.5819 82.7658 94.2742 82.7658 98.9323C82.7658 103.633 88.4442 106.24 88.4442 110.599C88.4442 114.958 83.15 118.676 83.15 123.163C83.15 127.266 87.8037 131.325 87.8891 136.197C86.8644 136.624 85.8396 137.052 84.7724 137.437C85.37 132.522 80.1186 127.479 80.1186 123.462C80.1186 119.103 85.6261 115.343 85.6261 110.599C85.6261 105.898 80.0331 103.676 80.0331 98.8467C80.0331 94.0175 83.4487 91.3254 83.4487 85.9834C83.4487 81.7954 81.3994 78.0774 78.3681 75.7269C78.3255 75.6842 78.2399 75.6415 78.1974 75.5986C77.8984 75.3851 77.685 75.6413 77.8984 75.8978C80.0333 78.5472 81.1433 81.2397 81.1433 85.214C81.1433 90.1284 77.2154 94.1029 77.2154 98.8465C77.2154 104.445 82.5095 106.026 82.5095 110.641C82.5095 115.214 76.8313 118.889 76.8313 123.761C76.8313 128.291 82.2107 133.291 81.2714 138.505C80.204 138.804 79.094 139.017 77.984 139.231C79.0088 132.735 73.7146 128.077 73.7146 123.804C73.7146 119.188 79.5637 115.086 79.5637 110.599C79.5637 106.368 75.3369 104.958 74.7819 100.641C74.6964 100.043 74.2268 99.6158 73.5865 99.7013C72.7326 99.8723 71.6226 100.428 69.9148 100.428C68.2071 100.428 67.0969 99.8723 66.2432 99.7013C65.6027 99.5729 65.1331 100.043 65.0476 100.641C64.4926 105 60.2659 106.368 60.2659 110.599C60.2659 115.086 66.1149 119.188 66.1149 123.804C66.1149 128.035 60.8635 132.736 61.8455 139.231C60.7355 139.017 59.6681 138.804 58.5579 138.505C57.6188 133.291 62.9982 128.291 62.9982 123.761C62.9982 118.889 57.3198 115.214 57.3198 110.641C57.3198 106.069 62.6139 104.445 62.6139 98.8465C62.6139 94.1029 58.686 90.1284 58.686 85.214C58.686 81.2397 59.8387 78.5472 61.9309 75.8978C62.1443 75.6413 61.8884 75.3849 61.6321 75.5986C61.5894 75.6413 61.504 75.6841 61.4613 75.7269C58.4727 78.0346 56.3807 81.7953 56.3807 85.9834C56.3807 91.3252 59.7964 94.0175 59.7964 98.8467C59.7964 103.676 54.2032 105.898 54.2032 110.599C54.2032 115.3 59.7108 119.06 59.7108 123.462C59.7108 127.479 54.4595 132.522 55.0571 137.437C53.9897 137.052 52.9651 136.667 51.9404 136.197C52.0258 131.325 56.6795 127.266 56.6795 123.163C56.6795 118.676 51.3853 114.958 51.3853 110.599C51.3853 106.24 57.0635 103.59 57.0635 98.9323C57.0635 94.2314 54.2458 91.5819 54.2458 86.7954C54.2458 82.5219 55.7402 79.7015 58.3443 76.6246C57.7893 76.9238 57.2771 77.2656 56.8074 77.6929C54.1176 80.0863 52.3672 83.8896 52.3672 87.6075C52.3672 92.6929 54.8436 95.0006 54.8436 98.9752C54.8436 102.949 49.0371 106.112 49.0371 110.642C49.0371 115.172 54.0749 119.018 54.0749 122.864C54.0749 126.326 49.7628 130.898 49.5919 135.086C48.6954 134.616 47.8417 134.146 46.9876 133.633C47.3291 129.83 51.3851 126.795 51.3851 122.949C51.3851 121.539 50.7446 120.385 50.1896 119.445C51.8548 124.744 45.6213 127.864 45.0663 132.436C43.9136 131.667 42.8461 130.855 41.7787 130C42.2483 129.146 43.0168 128.12 43.8707 127.522C43.4865 127.052 43.1022 126.539 42.718 126.069C41.7362 126.667 40.8394 127.821 40.2418 128.718C39.3386 127.9 38.456 127.059 37.5947 126.197C38.3632 125.214 39.3877 123.718 40.8821 123.291C40.5406 122.692 40.1991 122.137 39.9002 121.496C38.1923 121.966 36.9971 123.59 36.1005 124.573C35.2893 123.675 34.5634 122.735 33.8376 121.795C35.1612 120.94 36.2284 118.803 38.5767 118.675C38.7901 119.188 38.9609 119.658 39.217 120.128C39.4733 120.684 39.8575 120.898 40.5835 120.898C42.7609 120.898 46.1764 119.487 48.7806 116.88C47.0728 113.804 46.5606 112.222 46.5606 110.598C46.5606 106.496 52.367 103.077 52.367 99.0599C52.367 95.0855 50.3604 92.8205 50.3604 88.5043C50.3604 84.6153 52.1107 81.282 54.4163 78.4616C53.8612 78.8035 53.349 79.2308 52.8793 79.7009C50.4029 82.2222 48.7381 85.8974 48.7381 89.3162C48.7381 93.8889 50.4458 95.7691 50.4458 99.1453C50.4458 102.265 43.8281 106.624 44.5968 110.898C42.2912 112.992 39.5162 113.932 37.1252 113.932C37.3386 114.829 37.5949 115.684 37.851 116.539C35.1186 116.667 33.8805 119.017 32.4716 119.786C31.7458 118.718 31.1053 117.607 30.5077 116.496C32.9412 116.239 33.6672 113.12 37.0398 113.376C36.8691 112.564 36.6983 111.709 36.6129 110.897C32.7277 110.641 31.8311 113.932 29.3121 114.06C28.7571 112.906 28.2874 111.709 27.8177 110.513C31.3614 110.684 32.5995 107.222 36.314 107.265V106.197C36.314 105.555 36.314 104.914 36.3566 104.316C32.0017 104.231 30.6357 107.992 26.8784 107.607C26.5346 106.407 26.2355 105.196 25.9818 103.974C30.7636 104.573 32.4714 100.556 36.7835 100.556C36.9969 99.4017 37.2105 98.2905 37.552 97.1795C32.3433 96.9657 30.5074 101.496 25.4268 100.641C25.2986 99.5724 25.2134 98.5043 25.128 97.4357C31.0197 98.1197 33.2399 93.2478 38.662 93.8461C39.1743 92.5641 39.7721 91.3249 40.4124 90.128C33.6668 88.9316 31.3612 94.5726 25.0852 93.7178C25.6834 69.4445 45.5363 50 69.9574 50C94.3359 50 114.189 69.4445 114.872 93.718C108.596 94.5728 106.29 88.9316 99.5445 90.1282C100.228 91.3249 100.783 92.5642 101.295 93.8463C106.675 93.2478 108.895 98.1197 114.829 97.4357ZM50.6169 78.5897C47.3295 77.2222 43.3161 77.5641 39.9008 79.7437C39.3884 76.5385 37.6379 73.718 35.1617 72.0087C34.8202 71.7522 34.4787 72.0087 34.4787 72.3933C34.991 79.1453 31.0631 84.9572 26.2386 90.1282C31.2338 91.624 35.4607 85.2138 41.9075 87.4361C44.2483 83.982 47.1997 80.9841 50.6169 78.5897ZM69.9574 74.5299C65.7734 74.5299 62.2724 76.8803 61.3758 79.9572C61.2904 80.171 61.4185 80.3418 61.6746 80.2135C62.4433 79.8716 63.297 79.7008 64.1936 79.7008C65.9015 79.7008 67.3957 80.3418 68.2923 81.4101C68.6765 82.6922 68.7193 84.5724 68.2923 85.641C67.6093 85.4699 67.353 84.957 66.67 84.957C65.9869 84.957 65.4744 85.427 64.2792 85.427C63.1265 85.427 62.9984 84.8716 62.2299 84.8716C61.3331 84.8716 61.1624 85.8116 61.1624 86.8374C61.1624 91.4955 65.4319 97.9057 70.0001 97.9057C74.5258 97.9057 78.7952 91.4955 78.7952 86.8374C78.7952 85.8118 78.5816 84.9145 77.6425 84.7862C77.1728 85.1281 76.7457 85.4272 75.6785 85.4272C74.5258 85.4272 74.1841 84.9572 73.501 84.9572C72.6899 84.9572 72.7751 86.7093 71.7931 86.7949C71.1528 85.2137 71.1101 83.2053 71.6651 81.4103C72.5617 80.3418 74.0559 79.7009 75.7637 79.7009C76.703 79.7009 77.5567 79.8718 78.2826 80.2137C78.5389 80.342 78.6669 80.1711 78.5815 79.9574C77.5998 76.8803 74.0987 74.5299 69.9574 74.5299ZM76.5751 81.1966C75.593 81.1966 74.3976 81.4958 73.6719 82.3078C73.5865 82.5214 73.5865 82.8633 73.7146 83.077C75.5078 82.436 77.1301 82.436 77.8986 83.2906C78.3257 82.906 78.4537 82.5641 78.4537 82.1795C78.4537 81.6239 77.8132 81.1966 76.5751 81.1966ZM62.0163 83.3333C62.8702 82.4358 64.7488 82.4785 66.6702 83.2051C66.7556 82.2649 65.0478 81.1964 63.34 81.1964C62.1019 81.1964 61.5041 81.6237 61.5041 82.222C61.4613 82.6068 61.5894 82.9487 62.0163 83.3333ZM90.7496 67.5641C87.462 67.7779 84.6015 68.9316 82.296 70.8118C83.278 68.0341 84.5161 65.5983 86.0957 63.205C81.9117 63.6323 78.4108 65.1708 75.8491 67.8204L73.8426 62.5641L78.2826 58.6325L72.3482 58.2052L69.9572 52.6496L67.5664 58.2052L61.6319 58.6325L66.072 62.5641L64.0654 67.8204C61.5038 65.2137 58.0028 63.6752 53.8188 63.205C55.3985 65.5554 56.6366 67.9914 57.6186 70.8118C55.313 68.9316 52.4524 67.7779 49.165 67.5641C51.129 70.1283 52.8795 72.8206 54.2029 75.7266C54.331 76.0685 54.6725 76.1539 55.0141 75.9829C59.5397 73.7608 64.6203 72.4787 69.9997 72.4787C75.3791 72.4787 80.4599 73.7608 84.9854 75.9829C85.3269 76.1539 85.6257 76.0256 85.7966 75.7266C87.0352 72.8206 88.7857 70.1281 90.7496 67.5641ZM97.9222 87.4359C104.369 85.2137 108.638 91.6239 113.634 90.128C108.809 84.9999 104.881 79.1452 105.394 72.3931C105.436 72.0085 105.052 71.752 104.753 72.0085C102.277 73.7179 100.569 76.5383 100.014 79.7435C96.5988 77.5212 92.5856 77.222 89.2981 78.5895C92.6709 80.9828 95.6168 83.9743 97.9222 87.4359Z" fill="#00623D"/>
</g>
<defs>
<linearGradient id="paint0_linear_46_6688" x1="134.5" y1="1.50001" x2="5" y2="188" gradientUnits="userSpaceOnUse">
<stop offset="0.0491777" stop-color="#0DA96E"/>
<stop offset="1" stop-color="#8FE3B6" stop-opacity="0.69"/>
</linearGradient>
<clipPath id="clip0_46_6688">
<rect width="140.5" height="190" fill="white"/>
</clipPath>
</defs>
</svg>
