<svg width="141" height="190" viewBox="0 0 141 190" fill="none" xmlns="http://www.w3.org/2000/svg">
<g id="Image" clip-path="url(#clip0_46_6712)">
<rect id="&#240;&#159;&#150;&#188; Import image" x="0.5" width="140.5" height="190" rx="12" fill="url(#paint0_linear_46_6712)"/>
<g id="Vector">
<path d="M53.5088 81.8801C53.5088 86.6436 50.7774 89.5502 46.4392 90.4383C45.2341 90.6805 43.2257 90.6805 41.86 90.6805L31.3359 90.5998V94.6367L22.0168 86.9666L31.3359 79.2964V83.3333L43.1454 83.4141C44.2701 83.4141 44.7521 82.7682 44.7521 82.1223C44.7521 80.9112 43.6274 80.5075 40.2533 78.8927C34.8707 76.3091 30.6932 74.4521 30.6932 68.5583C30.6932 63.9562 33.987 60.8074 38.8072 60.1615C39.7712 60 41.619 60 42.7437 60C45.1538 60 51.9021 60.1615 51.9021 60.1615V67.5087L40.8156 67.3472C39.8516 67.3472 39.3695 67.9931 39.3695 68.639C39.3695 69.6078 40.1729 70.0115 43.306 71.4648C49.8936 74.5329 53.5088 76.2284 53.5088 81.8801ZM70.9419 81.3149C70.9419 82.6874 69.7368 83.8178 67.5677 83.8178C65.2379 83.8178 64.1936 82.6874 64.1936 81.3149V60.0807H55.1155V82.0415C55.1155 86.8858 59.1324 91.4879 67.4874 91.4879C75.4407 91.4879 79.8592 86.9666 79.8592 82.0415V60.0807H70.9419V81.3149ZM107.736 81.4764C107.736 87.5317 103.639 90.842 97.694 90.842H82.671V60.0807H97.1316C103.639 60.0807 106.933 63.714 106.933 68.4775C106.933 70.8997 105.808 72.9989 103.559 74.5329C106.21 75.9862 107.736 78.2468 107.736 81.4764ZM91.5884 72.2722H95.7659C97.3726 72.2722 98.0956 71.1419 98.0956 69.5271C98.0956 67.8316 97.3726 66.782 95.7659 66.782H91.5884V72.2722ZM98.658 81.0727C98.658 79.2157 97.7743 78.1661 96.1676 78.1661H91.5884V83.9792H96.1676C97.8546 83.9792 98.658 82.8489 98.658 81.0727Z" fill="white"/>
<path d="M45.9572 98.8351H54.8745V120.473C54.8745 125.479 51.3397 130 43.8684 130C40.6549 130 38.1645 129.031 36.3971 127.578C34.6297 129.031 32.2196 130 29.2471 130C21.2938 130 18 125.479 18 120.473V98.8351H26.9174V120.311C26.9174 121.2 27.3994 122.33 29.4078 122.33C31.4162 122.33 31.9786 121.28 31.9786 120.311V98.8351H40.8959V120.311C40.8959 121.2 41.378 122.33 43.3864 122.33C45.3948 122.33 45.9572 121.28 45.9572 120.311V98.8351ZM93.2754 110.946V98.8351H84.4384V111.753C84.4384 116.032 87.3305 119.262 92.2311 120.634V129.516H101.309V120.634C106.29 119.262 109.021 116.032 109.021 111.753V106.99C109.021 106.505 109.262 106.263 109.744 106.263H113.681V110.138L123 102.468L113.681 94.7981V98.6736H107.495C102.273 98.6736 100.104 101.742 100.104 106.101V110.946C100.104 112.076 99.3007 113.449 96.6496 113.449C94.0788 113.449 93.2754 112.076 93.2754 110.946ZM82.189 107.636V129.596H73.2716V120.634H66.5233V129.516H57.606V107.636C57.606 102.145 62.1048 97.9469 69.8975 97.9469C77.6098 97.9469 82.189 102.065 82.189 107.636ZM73.2716 113.61V108.12C73.2716 106.667 72.2272 105.617 69.8975 105.617C67.4874 105.617 66.5233 106.667 66.5233 108.12V113.61H73.2716Z" fill="#008938"/>
</g>
</g>
<defs>
<linearGradient id="paint0_linear_46_6712" x1="120.5" y1="14" x2="24.5" y2="196" gradientUnits="userSpaceOnUse">
<stop offset="0.0730378" stop-color="#EACC4A"/>
<stop offset="1" stop-color="#FEF0A9"/>
</linearGradient>
<clipPath id="clip0_46_6712">
<rect width="140.5" height="190" fill="white" transform="translate(0.5)"/>
</clipPath>
</defs>
</svg>
