<svg width="141" height="190" viewBox="0 0 141 190" fill="none" xmlns="http://www.w3.org/2000/svg">
<rect x="0.5" width="140.5" height="190" rx="12" fill="url(#paint0_linear_169_3551)"/>
<path d="M71.7102 45.0002C71.5781 44.9991 71.4421 45.0033 71.3104 45.0048C67.2925 45.0503 63.2272 46.058 59.4808 47.965C59.4808 47.965 60.0635 47.8054 60.4613 47.809C60.5179 47.8095 60.5693 47.81 60.6162 47.8183C61.0019 47.8844 61.3678 48.0972 61.6785 48.3508C62.1175 48.7088 62.2767 49.3952 62.749 49.7C63.1328 49.9474 63.6168 49.9882 64.0649 50.012C65.0271 50.0636 65.9708 49.6969 66.9329 49.6447C67.9047 49.592 68.8896 49.5523 69.8527 49.7C71.2761 49.918 72.6868 50.3229 74.011 50.9205C75.5708 51.6251 77.0237 52.6054 78.3928 53.6694C79.7344 54.7123 80.9157 55.9757 82.1126 57.2035C83.8442 58.9798 85.2351 61.1399 87.1095 62.7432C87.8791 63.4012 88.6679 63.959 89.6383 64.3862C91.0239 64.9967 94.0245 65.4373 94.0245 65.4373L95.2799 65.7726C95.9323 65.8883 96.5242 66.0479 97.0473 66.2452L97.0773 66.2545C97.5555 66.4373 97.9756 66.6558 98.3328 66.9063C97.3629 63.489 95.6826 60.2308 93.8304 57.3192C89.1892 50.0213 80.0397 45.0621 71.7102 45.0002Z" fill="#BD61F8"/>
<path d="M54.8405 50.9347C52.2951 52.9297 50.085 55.3707 48.3041 58.1541C45.5033 62.5363 43.4707 67.8941 43.4707 73.2349V98.0548C43.4687 98.6028 43.7557 98.8807 44.1201 98.8807H51.1725C50.2419 98.3931 49.5803 97.7443 49.2158 96.9623C46.5037 91.1442 55.1778 80.8769 68.6655 72.9963C69.2429 72.5449 69.7879 72.0697 69.7709 71.8858C69.7491 71.6534 68.8765 72.0325 68.8765 72.0325C62.4412 74.7546 56.7672 79.0437 51.5728 83.6898C51.5728 83.6898 50.5332 78.709 50.0933 76.255C49.8223 74.7411 49.4632 73.2375 49.3364 71.7024C49.2197 70.2882 49.3364 67.4432 49.3364 67.4432C49.3364 67.4432 49.3993 64.5807 49.801 63.184C50.2215 61.7217 51.8051 58.9661 51.8051 58.9661C51.8051 58.9661 53.0958 57.0286 54.1059 55.9506C54.3624 55.6769 54.6222 55.1454 54.6305 54.7389C54.6372 54.4047 54.4325 54.2012 54.3595 53.8763C54.2646 53.4532 54.1693 52.9434 54.1833 52.5085C54.1905 52.1914 54.2623 51.8798 54.3938 51.5953C54.4911 51.3789 54.6905 51.1196 54.8405 50.9347Z" fill="#682A8F"/>
<path d="M99.2015 73.193C97.1049 78.7446 90.0206 86.2987 79.7649 92.1705C73.8334 95.5666 68.4507 97.7262 63.9014 98.8801H98.5738C98.9948 98.8801 99.2146 98.6621 99.2146 98.0676C99.2083 90.6529 99.2029 81.8607 99.2015 73.193Z" fill="#682A8F"/>
<path d="M91.1429 72.6376C87.3825 72.6309 79.7963 75.4583 71.8094 80.2836C60.0742 87.3729 54.7854 94.4409 56.819 95.7545C59.5297 97.5049 68.2348 96.7085 80.3969 89.2143C85.3881 86.1389 94.7916 78.6995 93.5599 73.7936C93.3629 73.01 92.5029 72.6402 91.1429 72.6376ZM73.0392 81.3575C73.0392 81.3575 75.6797 86.7463 71.5945 90.0588C66.011 94.5861 61.8934 89.7649 61.8934 89.7649C64.6418 86.6451 68.5179 83.6529 73.0392 81.3575Z" fill="#682A8F"/>
<path d="M53.6781 140.383C54.2901 140.383 54.7587 140.243 55.0867 139.964C55.2506 139.819 55.3805 139.634 55.4658 139.425C55.5511 139.215 55.5893 138.987 55.5773 138.759V138.708C55.5859 138.488 55.5482 138.268 55.4671 138.065C55.386 137.863 55.2634 137.683 55.1087 137.539C54.7973 137.25 54.3066 137.107 53.6396 137.107H49.9321V140.38H53.6781V140.383ZM52.4184 133.659C53.0304 133.659 53.4962 133.531 53.816 133.278C54.1357 133.025 54.2956 132.635 54.2956 132.112V132.061C54.3074 131.848 54.273 131.635 54.195 131.438C54.117 131.242 53.9976 131.068 53.8463 130.93C53.5458 130.669 53.0993 130.538 52.5011 130.538H49.9293V133.659H52.4184ZM46.0758 126.577H53.3997C54.2984 126.577 55.0674 126.714 55.7042 126.985C56.3437 127.256 56.8481 127.461 57.2699 127.913C57.5565 128.267 57.9121 128.574 58.1244 129.184C58.287 129.657 58.3724 130.386 58.3724 130.996V131.136C58.3724 132.168 58.0058 132.963 57.5923 133.596C57.1761 134.23 56.5807 134.313 55.9412 134.653C57.1568 134.861 58.4661 135.923 58.9761 136.592C59.486 137.262 59.7397 138.196 59.7397 139.395V139.446C59.7397 140.984 59.2683 142.186 58.3228 143.049C57.3773 143.912 55.1528 144.343 53.4383 144.343H46.073V126.577H46.0758Z" fill="white"/>
<path d="M61.2999 126.577H73.7261V130.288H65.3023V133.567H72.4802V137.045H65.3023V140.559H73.9135V144.343H61.2999V126.577Z" fill="white"/>
<path d="M75.6529 126.577H79.9392V140.579H87.4286V144.343H75.6529V126.577Z" fill="white"/>
<path d="M89.0798 126.577H93.3661V140.579H100.855V144.343H89.0798V126.577Z" fill="white"/>
<path d="M45.9771 109.481H41V105.776H55.339V109.481H50.2157V123.594H45.9771V109.481Z" fill="white"/>
<path d="M62.9305 117.397L60.8915 111.305L58.72 117.397H62.9305ZM59.3506 105.702H62.7897L69.5821 123.594H65.1141L64.1496 120.972H57.5764L56.5561 123.594H52.4245L59.3506 105.702Z" fill="white"/>
<path d="M92.9747 105.475C91.8147 105.515 90.5438 105.849 89.5691 106.301C88.5295 106.783 87.6758 107.391 86.9072 108.229C86.1387 109.066 85.737 109.995 85.3077 111.12C84.8784 112.246 84.7618 113.44 84.7618 114.709V114.764C84.7618 116.033 84.8784 117.222 85.3077 118.339C85.737 119.456 86.326 120.429 87.0795 121.258C87.8331 122.087 88.7318 122.745 89.7714 123.227C90.8109 123.71 91.9395 123.948 93.1601 123.948C94.3802 123.948 95.5093 123.71 96.5488 123.227C97.5655 122.761 98.4872 122.088 99.2625 121.245C100.031 120.408 100.631 119.428 101.06 118.303C101.489 117.178 101.58 115.979 101.58 114.71V114.659C101.58 113.39 101.489 112.201 101.06 111.084C100.631 109.967 100.037 108.994 99.2837 108.165C98.5307 107.336 97.6358 106.678 96.5963 106.196C95.5567 105.714 94.4242 105.476 93.2037 105.476C93.1262 105.475 93.0522 105.472 92.9747 105.475ZM93.1553 109.372C93.8018 109.372 94.3937 109.516 94.9271 109.808C95.456 110.097 95.9253 110.497 96.3073 110.983C96.7019 111.483 97.0066 112.058 97.2061 112.676C97.4161 113.317 97.5202 113.993 97.5202 114.709V114.769C97.5202 115.485 97.4161 116.162 97.2061 116.802C96.996 117.443 96.7047 118.006 96.333 118.487C95.9611 118.966 95.4979 119.356 94.974 119.629C94.4407 119.912 93.8531 120.051 93.2066 120.051C92.5605 120.051 91.9681 119.907 91.4348 119.615C90.9081 119.328 90.4426 118.928 90.0671 118.44C89.6794 117.937 89.3795 117.363 89.1814 116.747C88.9696 116.091 88.8634 115.402 88.8673 114.709V114.654C88.8673 113.937 88.9665 113.261 89.1683 112.621C89.3702 111.98 89.6615 111.417 90.0414 110.936C90.4167 110.46 90.8792 110.072 91.4004 109.794C91.926 109.511 92.5087 109.372 93.1553 109.372Z" fill="white"/>
<path d="M68.9288 114.732C68.9288 112.462 69.4854 109.925 70.9407 108.27C72.5319 106.46 75.0829 105.479 77.4079 105.479C81.9582 105.479 84.0591 108.839 84.0591 108.839L80.8238 111.331C80.8238 111.331 79.9555 110.279 79.3888 109.955C78.8134 109.626 78.1416 109.37 77.4916 109.436C76.2783 109.558 74.991 110.123 74.1832 111.098C73.4258 112.012 73.0643 113.357 73.1127 114.576C73.1776 116.211 73.7641 118.01 74.9126 119.094C75.5509 119.696 76.6399 119.847 77.3697 119.847C78.4523 119.847 79.0399 119.62 79.7779 119.224C80.2769 118.957 81.0672 118.082 81.0672 118.082L84.4487 120.678C84.4487 120.678 81.9137 123.897 77.4916 123.897C75.5471 123.897 73.4292 123.401 72.0736 122.177C70.0685 120.368 68.9288 118.892 68.9288 114.732Z" fill="white"/>
<defs>
<linearGradient id="paint0_linear_169_3551" x1="120.5" y1="14" x2="24.5" y2="196" gradientUnits="userSpaceOnUse">
<stop offset="0.0730378" stop-color="#9D16F1"/>
<stop offset="1" stop-color="#CEA9FE"/>
</linearGradient>
</defs>
</svg>
